<?xml version="1.0" standalone="no"?>
<!DOCTYPE svg PUBLIC "-//W3C//DTD SVG 1.1//EN" "http://www.w3.org/Graphics/SVG/1.1/DTD/svg11.dtd" >
<svg>
<metadata>
Created by FontForge 20090914 at Fri Sep 23 00:38:47 2016
 By www-data
 Vonique 64 &#194;&#169;Sharkshock Productions 2015. All Rights Reserved
</metadata>
<defs>
<font id="Vonique64" horiz-adv-x="110" >
  <font-face 
    font-family="Vonique 64"
    font-weight="400"
    font-stretch="normal"
    units-per-em="2048"
    panose-1="2 0 5 0 0 0 0 0 0 0"
    ascent="1638"
    descent="-410"
    x-height="1432"
    cap-height="1434"
    bbox="-48 -934 2818 1938"
    underline-thickness="150"
    underline-position="-142"
    unicode-range="U+0020-U+F002"
  />
<missing-glyph horiz-adv-x="1024" 
d="M100 0v1434h824v-1434h-824zM150 50h724v1334h-724v-1334zM325 1148c20.667 18.667 40.002 32.998 58.002 42.998c35.333 20 72.666 30 111.999 30c61.333 0 110.666 -15.833 147.999 -47.5s56 -74.167 56 -127.5c0 -32.667 -7.66699 -65.5 -23 -98.5
s-44.333 -76.167 -87 -129.5c-42 -53.333 -75 -97.333 -99 -132s-36 -67.667 -36 -99c0 -25.333 8 -69.666 24 -132.999h-32c-23.333 64.667 -35 114 -35 148c0 50.667 27.167 123.334 81.5 218.001s81.5 167 81.5 217c0 38 -11 68 -33 90s-52.333 33 -91 33
c-25.333 0 -48.333 -5.66699 -69 -17c-17.333 -10 -36 -23.333 -56 -40v45zM389.002 333.998l57 57.999c7.33301 6.66699 14 10 20 10c6.66699 0 14 -3.66699 22 -11l56 -60c6 -7.33301 9 -14 9 -20c0 -7.33301 -3.33301 -14.666 -10 -21.999l-56 -62
c-9.33301 -9.33301 -16.333 -14 -21 -14c-7.33301 0 -14 3.33301 -20 10l-61 71c-4.66699 6 -7 12 -7 18c0 6.66699 3.66699 14 11 22z" />
    <glyph glyph-name=".notdef" horiz-adv-x="1024" 
d="M100 0v1434h824v-1434h-824zM150 50h724v1334h-724v-1334zM325 1148c20.667 18.667 40.002 32.998 58.002 42.998c35.333 20 72.666 30 111.999 30c61.333 0 110.666 -15.833 147.999 -47.5s56 -74.167 56 -127.5c0 -32.667 -7.66699 -65.5 -23 -98.5
s-44.333 -76.167 -87 -129.5c-42 -53.333 -75 -97.333 -99 -132s-36 -67.667 -36 -99c0 -25.333 8 -69.666 24 -132.999h-32c-23.333 64.667 -35 114 -35 148c0 50.667 27.167 123.334 81.5 218.001s81.5 167 81.5 217c0 38 -11 68 -33 90s-52.333 33 -91 33
c-25.333 0 -48.333 -5.66699 -69 -17c-17.333 -10 -36 -23.333 -56 -40v45zM389.002 333.998l57 57.999c7.33301 6.66699 14 10 20 10c6.66699 0 14 -3.66699 22 -11l56 -60c6 -7.33301 9 -14 9 -20c0 -7.33301 -3.33301 -14.666 -10 -21.999l-56 -62
c-9.33301 -9.33301 -16.333 -14 -21 -14c-7.33301 0 -14 3.33301 -20 10l-61 71c-4.66699 6 -7 12 -7 18c0 6.66699 3.66699 14 11 22z" />
    <glyph glyph-name="space" unicode=" " horiz-adv-x="508" 
 />
    <glyph glyph-name="space" unicode="&#xa0;" horiz-adv-x="508" 
 />
    <glyph glyph-name="exclam" unicode="!" horiz-adv-x="291" 
d="M140 265h-102v1174h102v-1174zM154.5 138.5c17.667 -17.667 26.5 -39.167 26.5 -64.5c0 -24.667 -8.83301 -45.834 -26.5 -63.501s-38.834 -26.5 -63.501 -26.5c-25.333 0 -46.833 8.83301 -64.5 26.5s-26.5 38.834 -26.5 63.501c0 25.333 8.83301 46.833 26.5 64.5
s39.167 26.5 64.5 26.5c24.667 0 45.834 -8.83301 63.501 -26.5z" />
    <glyph glyph-name="quotedbl" unicode="&#x22;" horiz-adv-x="434" 
d="M109 1433h-109v-442h108zM324 1433h-109v-442h108z" />
    <glyph glyph-name="numbersign" unicode="#" horiz-adv-x="1110" 
d="M608 608h-297l73 303h296zM1000 911v99h-193l86 359h-102l-87 -359h-296l86 359h-102l-87 -359h-213v-99h190l-73 -303h-209v-99h185l-111 -459h103l110 459h297l-111 -459h103l110 459h222v99h-198l73 303h217z" />
    <glyph glyph-name="dollar" unicode="$" horiz-adv-x="1104" 
d="M448 107c-87.333 9.33301 -164 45.665 -230 108.998c-76.667 74.667 -116.334 165 -119.001 271h-99c2 -133.333 51.333 -247 148 -341c84.667 -82.667 184.667 -129 300 -139v-98h109v99c111.333 12.667 208.333 59.667 291 141c97.333 95.333 146 210.666 146 345.999
c0 102.667 -30 196 -90 280c-58 82.667 -134.333 142 -229 178c-38.667 14.667 -78 24.334 -118 29.001v341c23.333 -8.66699 44.333 -22.334 63 -41.001c34.667 -34 52 -75 52 -123h99c0 75.333 -26.667 139.666 -80 192.999c-39.333 38.667 -84 63.334 -134 74.001v108
h-109v-106c-55.333 -9.33301 -103.666 -34.666 -144.999 -75.999c-54 -53.333 -81 -117.666 -81 -192.999s27 -139.666 81 -192.999c2.66699 -2.66699 7.66699 -7 15 -13c38.667 -33.333 82 -54 130 -62v-784zM448 991.999c-28 8 -53 23 -75 45c-34 34 -51 74.667 -51 122
c0 48 17 89 51 123c22 22 47 37 75 45v-335zM778 771.999c77.333 -76.667 116 -169 116 -277c0 -107.333 -38.667 -199.333 -116 -276c-63.333 -62 -137 -99 -221 -111v775c84 -12 157.667 -49 221 -111z" />
    <glyph glyph-name="percent" unicode="%" horiz-adv-x="1449" 
d="M999 1266h-106l-571 -1091h107zM1247.5 655.5c61 -61 91.5 -134.5 91.5 -220.5s-30.5 -159.667 -91.5 -221s-134.833 -92 -221.5 -92c-86 0 -159.5 30.667 -220.5 92s-91.5 135 -91.5 221s30.5 159.5 91.5 220.5s134.5 91.5 220.5 91.5c86.667 0 160.5 -30.5 221.5 -91.5
zM1029 663c-62 0 -115 -22 -159 -66s-66 -97 -66 -159s22 -115.167 66 -159.5s97 -66.5 159 -66.5c62.667 0 116 22.167 160 66.5s66 97.5 66 159.5s-22 115 -66 159s-97.333 66 -160 66zM533.5 1259c61 -60.667 91.5 -134.334 91.5 -221.001
c0 -86 -30.5 -159.667 -91.5 -221s-134.833 -92 -221.5 -92c-86 0 -159.5 30.667 -220.5 92s-91.5 135 -91.5 221c0 86.667 30.5 160.334 91.5 221.001s134.5 91 220.5 91c86.667 0 160.5 -30.333 221.5 -91zM315 1266c-62 0 -115 -21.833 -159 -65.5
s-66 -96.834 -66 -159.501c0 -62 22 -115 66 -159s97 -66 159 -66s115.167 22 159.5 66s66.5 97 66.5 159c0 62.667 -22.167 115.834 -66.5 159.501s-97.5 65.5 -159.5 65.5z" />
    <glyph glyph-name="ampersand" unicode="&#x26;" horiz-adv-x="1407" 
d="M557 961c4.66699 0 5.66699 0 3 0c-2 0 -0.666992 0 4 0l-2 1h-2h-1zM1296 852l-130.998 0.00195312c-62 -72.667 -140.667 -109 -236 -109h-120c-151.333 0 -269 -64.667 -353 -194l-20 -33h132c56 76.667 136.333 115 241 115h120c14 0 28.333 0.666992 43 2
c8.66699 -35.333 13 -70 13 -104c0 -119.333 -42.333 -221.666 -127 -306.999c-84.667 -84.667 -186.667 -127 -306 -127s-221.333 42.333 -306 127c-84.667 85.333 -127 187.666 -127 306.999c0 76 18.667 147 56 213c36.667 63.333 85.667 114.666 147 153.999
c9.33301 5.33301 17.333 9.66602 24 12.999c8.66699 4.66699 11.667 6.33398 9 5.00098c2 1.33301 2.33301 1.66602 1 0.999023c64 36 111 57 141 63c-72.667 15.333 -116.334 67 -131.001 155c-1.33301 8.66699 -2 15 -2 19c0 52 18.333 96.667 55 134
c37.333 36.667 81.666 55 132.999 55c52 0 96.333 -18.333 133 -55c36.667 -37.333 55 -82 55 -134c0 -29.333 -6.66699 -57.333 -20 -84h127c8 28 12 56 12 84c0 85.333 -30 158.333 -90 219s-132.333 91 -217 91s-157 -30.333 -217 -91s-90 -133.667 -90 -219
c0 -50 11.333 -97 34 -141c-84.667 -49.333 -151.667 -116 -201 -200c-52 -87.333 -78 -181.333 -78 -282c0 -153.333 54 -284.333 162 -393c107.333 -108 237.333 -162 390 -162s282.667 54 390 162c108 108.667 162 239.667 162 393c0 44 -5.33301 88.333 -16 133
c84 34.667 146.333 86 187 154l22 35z" />
    <glyph glyph-name="quotesingle" unicode="'" horiz-adv-x="471" 
d="M363 1934h-120l-241 -409h113z" />
    <glyph glyph-name="parenleft" unicode="(" horiz-adv-x="525" 
d="M40 540c35.333 -192.667 136.333 -372.668 303 -540.001l72 71c-266.667 266.667 -349.667 558 -249 874c52 163.333 135 302.333 249 417l-72 71c-118.667 -119.333 -207.667 -267.666 -267 -444.999c-50.667 -152 -62.667 -301.333 -36 -448z" />
    <glyph glyph-name="parenright" unicode=")" horiz-adv-x="525" 
d="M339 988c-59.333 177.333 -148.666 325.667 -267.999 445l-71 -71c114 -114.667 197 -253.667 249 -417c100.667 -316 17.667 -607.333 -249 -874l71 -71c167.333 167.333 268.666 347.333 303.999 540c26.667 146.667 14.667 296 -36 448z" />
    <glyph glyph-name="asterisk" unicode="*" horiz-adv-x="818" 
d="M708 1130h-230l162 163l-72 72l-163 -162v230h-102v-230l-163 162l-72 -72l162 -163h-230v-102h230l-162 -163l72 -73l163 163v-230h102v230l163 -162l72 72l-162 163h230v102z" />
    <glyph glyph-name="plus" unicode="+" horiz-adv-x="885" 
d="M439 996h-103v-336h-336v-103h336v-336h103v336h336v103h-336v336z" />
    <glyph glyph-name="comma" unicode="," horiz-adv-x="384" 
d="M274 158h-120l-154 -256h113z" />
    <glyph glyph-name="hyphen" unicode="-" horiz-adv-x="885" 
d="M775 660h-775v-103h775v103z" />
    <glyph glyph-name="hyphen" unicode="&#xad;" horiz-adv-x="885" 
d="M775 660h-775v-103h775v103z" />
    <glyph glyph-name="period" unicode="." horiz-adv-x="291" 
d="M154.5 138.5c17.667 -17.667 26.5 -39.167 26.5 -64.5c0 -24.667 -8.83301 -45.834 -26.5 -63.501s-38.834 -26.5 -63.501 -26.5c-25.333 0 -46.833 8.83301 -64.5 26.5s-26.5 38.834 -26.5 63.501c0 25.333 8.83301 46.833 26.5 64.5s39.167 26.5 64.5 26.5
c24.667 0 45.834 -8.83301 63.501 -26.5z" />
    <glyph glyph-name="slash" unicode="/" horiz-adv-x="960" 
d="M860 1432h-115l-745 -1432h115z" />
    <glyph glyph-name="zero" unicode="0" horiz-adv-x="1282" 
d="M249 1165c93.333 122.667 205.666 184 336.999 184c132 0 244.667 -61.333 338 -184c93.333 -123.333 140 -272 140 -446s-46.667 -322.667 -140 -446c-93.333 -122.667 -206 -184 -338 -184c-131.333 0 -243.666 61.333 -336.999 184c-93.333 123.333 -140 272 -140 446
s46.667 322.667 140 446zM172 197c114.667 -144.667 252.667 -217 414 -217c162 0 300 72.333 414 217c114.667 144 172 318 172 522s-57.333 378 -172 522c-114 144.667 -252 217 -414 217c-161.333 0 -299.333 -72.333 -414 -217c-114.667 -144 -172 -318 -172 -522
s57.333 -378 172 -522z" />
    <glyph glyph-name="one" unicode="1" horiz-adv-x="312" 
d="M200 1430v2h-200v-105h98v-1327h104v1430h-2z" />
    <glyph glyph-name="two" unicode="2" horiz-adv-x="981" 
d="M187 104l527.002 931.001c34 54.667 48.833 112 44.5 172s-31.833 112.667 -82.5 158c-56.667 56 -124.667 84 -204 84c-74.667 0 -139.667 -25.333 -195 -76c-54.667 -51.333 -84.667 -114 -90 -188c-1.33301 -9.33301 -2 -16 -2 -20c0 -24 3.33301 -48.333 10 -73h118
c-2.66699 5.33301 -5 10.666 -7 15.999v1c-2 5.33301 -3.66699 10.666 -5 15.999c0 1.33301 -0.333008 2.33301 -1 3c-0.666992 4 -1.33398 9 -2.00098 15c-0.666992 3.33301 -1 4.33301 -1 3c-0.666992 6.66699 -1 13 -1 19c0 6.66699 0.666992 13.334 2 20.001
c2 20.667 8 40.667 18 60h1c1.33301 3.33301 3.33301 7 6 11c0.666992 1.33301 1.33398 2.33301 2.00098 3c1.33301 2.66699 3.66602 5.66699 6.99902 9c1.33301 2.66699 2.33301 4.33398 3 5.00098c1.33301 2 3.33301 4.33301 6 7c2 2.66699 3.33301 4.33398 4 5.00098
c2.66699 2 5 4 7 6l5 5c2.66699 2 5 4 7 6c2.66699 2 4.66699 3.33301 6 4c3.33301 2 5.66602 3.66699 6.99902 5c2.66699 1.33301 5 2.66602 7 3.99902c3.33301 2 5.66602 3.33301 6.99902 4c2 0.666992 4.66699 1.66699 8 3c2.66699 1.33301 5 2.33301 7 3
c2.66699 1.33301 5.66699 2.66602 9 3.99902c4 1.33301 6.33301 2 7 2c1.33301 0 4.33301 0.666992 9 2l7 2c2 0 5.66699 0.666992 11 2h3h3c6 0.666992 11.667 1 17 1c48.667 0 90 -17 124 -51s51 -75 51 -123c0 -20.667 -4 -41 -12 -61
c-1.33301 -2.66699 -2.66602 -4.66699 -3.99902 -6l-631 -1097h871v104h-684z" />
    <glyph glyph-name="three" unicode="3" horiz-adv-x="1145" 
d="M726 978c52 52 77.999 120.003 77.999 204.003c0 79.333 -28.333 147.333 -85 204c-56.667 56 -125 84 -205 84c-76 0 -141.667 -26 -197 -78c-55.333 -51.333 -85.666 -114.333 -90.999 -189c-0.666992 -10 -1 -17 -1 -21c0 -24 3.33301 -48.667 10 -74h119
c-2.66699 5.33301 -5 11 -7 17c0.666992 -1.33301 0.666992 -1 0 1c-2 4.66699 -3.66699 10 -5 16c0 1.33301 -0.333008 2 -1 2c-0.666992 4.66699 -1.33398 10 -2.00098 16c-0.666992 2.66699 -1 3.66699 -1 3c-0.666992 6.66699 -1 13 -1 19
c0 6.66699 0.333008 13.667 1 21c2.66699 20.667 9 40.667 19 60l1 1c1.33301 3.33301 3.33301 7 6 11c1.33301 2.66699 2 3.66699 2 3l6 9c2 2.66699 3.33301 4 4 4c1.33301 2 3.33301 4.66699 6 8l5 5l6 6c2 2 4 3.66699 6 5c2 2 4.33301 4 7 6s4.66699 3.33301 6 4
c2.66699 2 5 3.66699 7 5c2.66699 1.33301 5 2.66602 7 3.99902c2.66699 2 5 3.33301 7 4s4.66699 2 8 4c2.66699 1.33301 5 2.33301 7 3c1.33301 0.666992 4 1.66699 8 3s6.66699 2 8 2l9 3c4.66699 1.33301 7 1.66602 7 0.999023c2 0.666992 5.66699 1.33398 11 2.00098
s7.33301 1 6 1c6 0.666992 11.667 1 17 1c49.333 0 91.333 -17.333 126 -52c34.667 -34 52 -75.333 52 -124c0 -36 -20.667 -80.333 -62 -133l-78 -83l74 -49c98.667 -52 173 -116.333 223 -193c49.333 -69.333 74 -146 74 -230c0 -110.667 -39.667 -205.334 -119 -284.001
c-80 -78.667 -176.667 -118 -290 -118c-98.667 0 -185.667 31.333 -261 94c-75.333 61.333 -122 139 -140 233h-113c18.667 -124.667 76.334 -228.667 173.001 -312c98 -84.667 211.667 -127 341 -127c144 0 266.667 50 368 150c102 100.667 153 222 153 364
s-51 263 -153 363c-50 49.333 -102 89.666 -156 120.999z" />
    <glyph glyph-name="four" unicode="4" horiz-adv-x="1182" 
d="M760 523h-498l499 585zM889 523v909l-888 -1021h2l-3 -2h763v-409h126v409h177v114h-177z" />
    <glyph glyph-name="five" unicode="5" horiz-adv-x="1236" 
d="M555 1098l-195.001 0.00195312v230h352v104h-456v-3v0v-435v0v-3h297v-1c128 0 237.667 -43 329 -129c90.667 -86 136 -190 136 -312c0 -121.333 -45 -225 -135 -311c-91.333 -86.667 -201.333 -130 -330 -130c-101.333 0 -192.666 28.667 -273.999 86
c-80 55.333 -135.667 127.666 -167 216.999h-112c32.667 -119.333 99.667 -217.333 201 -294c103.333 -78 220.666 -117 351.999 -117c158 0 292.667 53.333 404 160c112.667 107.333 169 237 169 389c0 151.333 -56 280.666 -168 387.999
c-111.333 107.333 -245.666 161 -402.999 161v0z" />
    <glyph glyph-name="six" unicode="6" horiz-adv-x="1346" 
d="M651 1434l-442.999 -405c-124 -113.333 -189.667 -253.666 -197 -420.999c-7.33301 -168 45.667 -313.667 159 -437c113.333 -124 253.666 -189.667 420.999 -197s313 45.667 437 159c123.333 113.333 189 253.666 197 420.999c7.33301 167.333 -45.667 313 -159 437
c-73.333 80 -161.333 136 -264 168c-99.333 31.333 -189.333 40 -270 26l273 249h-154zM601.001 80c-136.667 6.66699 -250.999 60.001 -342.999 160.001c-92.667 101.333 -136 220.333 -130 357c6.66699 136 60 250.333 160 343c101.333 92.667 220.333 135.667 357 129
c136 -6 250.333 -59.333 343 -160s135.667 -219.334 129 -356.001c-6 -136.667 -59.333 -251 -160 -343c-100.667 -92.667 -219.334 -136 -356.001 -130z" />
    <glyph glyph-name="seven" unicode="7" horiz-adv-x="1168" 
d="M0 1432v-105h865l-846 -1327h125l846 1327l68 105h-1058z" />
    <glyph glyph-name="eight" unicode="8" horiz-adv-x="1148" 
d="M231 201c-79.333 78 -119 172.333 -119 283c0 110 39.667 204.333 119 283c79.333 78 175.333 117 288 117s208.667 -39 288 -117c80 -78.667 120 -173 120 -283c0 -110.667 -40 -205 -120 -283c-79.333 -78.667 -175.333 -118 -288 -118c-112 0 -208 39.333 -288 118z
M644 1299c34.667 -34 52 -75.333 52 -124c0 -48 -17.333 -89.333 -52 -124c-34.667 -34 -76.334 -51 -125.001 -51s-90.334 17 -125.001 51c-34.667 34.667 -52 76 -52 124c0 48.667 17.333 90 52 124s76.334 51 125.001 51s90.334 -17 125.001 -51zM808 1175
c0 79.333 -28.3311 147 -84.998 203c-56 56 -124 84 -204 84c-79.333 0 -147.333 -28 -204 -84c-56 -56 -84 -123.667 -84 -203c0 -86 32.667 -157.667 98 -215c-67.333 -26 -126.333 -64 -177 -114c-101.333 -100 -152 -220.667 -152 -362s50.667 -262 152 -362
c101.333 -100.667 223.666 -151 366.999 -151s265.666 50.333 366.999 151c101.333 100 152 220.667 152 362c0 106.667 -30.667 203.667 -92 291c-60 85.333 -139 147 -237 185c66 57.333 99 129 99 215z" />
    <glyph glyph-name="nine" unicode="9" horiz-adv-x="1346" 
d="M579 0l442.999 405c124 113.333 189.667 253.666 197 420.999c7.33301 168 -45.667 313.667 -159 437c-113.333 124 -253.666 189.667 -420.999 197s-313 -45.667 -437 -159c-123.333 -113.333 -189 -253.666 -197 -420.999c-7.33301 -167.333 45.667 -313 159 -437
c73.333 -80 161.333 -136 264 -168c99.333 -31.333 189.333 -40 270 -26l-273 -249h154zM628.999 1354c136.667 -6 250.999 -59.333 342.999 -160c92.667 -100.667 136 -219.667 130 -357c-6.66699 -136 -60 -250.333 -160 -343c-101.333 -92 -220.333 -135 -357 -129
c-136 6 -250.333 59.333 -343 160s-135.667 219.667 -129 357c6 136 59.333 250 160 342c100.667 92.667 219.334 136 356.001 130z" />
    <glyph glyph-name="colon" unicode=":" horiz-adv-x="291" 
d="M154.5 548.5c17.667 -17.667 26.5 -39.167 26.5 -64.5c0 -24.667 -8.83301 -45.834 -26.5 -63.501s-38.834 -26.5 -63.501 -26.5c-25.333 0 -46.833 8.83301 -64.5 26.5s-26.5 38.834 -26.5 63.501c0 25.333 8.83301 46.833 26.5 64.5s39.167 26.5 64.5 26.5
c24.667 0 45.834 -8.83301 63.501 -26.5zM154.5 1013.5c17.667 -17.667 26.5 -39.167 26.5 -64.5c0 -24.667 -8.83301 -45.834 -26.5 -63.501s-38.834 -26.5 -63.501 -26.5c-25.333 0 -46.833 8.83301 -64.5 26.5s-26.5 38.834 -26.5 63.501
c0 25.333 8.83301 46.833 26.5 64.5s39.167 26.5 64.5 26.5c24.667 0 45.834 -8.83301 63.501 -26.5z" />
    <glyph glyph-name="semicolon" unicode=";" horiz-adv-x="396" 
d="M259.5 1013.5c17.667 -17.667 26.5 -39.167 26.5 -64.5c0 -24.667 -8.83301 -45.834 -26.5 -63.501s-39.167 -26.5 -64.5 -26.5s-46.833 8.83301 -64.5 26.5s-26.5 38.834 -26.5 63.501c0 25.333 8.83301 46.833 26.5 64.5s39.167 26.5 64.5 26.5
s46.833 -8.83301 64.5 -26.5zM274 565h-120l-154 -256h113z" />
    <glyph glyph-name="semicolon" unicode="&#x37e;" horiz-adv-x="396" 
d="M259.5 1013.5c17.667 -17.667 26.5 -39.167 26.5 -64.5c0 -24.667 -8.83301 -45.834 -26.5 -63.501s-39.167 -26.5 -64.5 -26.5s-46.833 8.83301 -64.5 26.5s-26.5 38.834 -26.5 63.501c0 25.333 8.83301 46.833 26.5 64.5s39.167 26.5 64.5 26.5
s46.833 -8.83301 64.5 -26.5zM274 565h-120l-154 -256h113z" />
    <glyph glyph-name="less" unicode="&#x3c;" horiz-adv-x="1084" 
d="M974 345l-733 379l348 181l385 199v125l-974 -505l974 -504v125z" />
    <glyph glyph-name="equal" unicode="=" horiz-adv-x="885" 
d="M775 510h-775v-103h775v103zM775 790h-775v-103h775v103z" />
    <glyph glyph-name="greater" unicode="&#x3e;" horiz-adv-x="1084" 
d="M0 220l974 504l-974 505v-125l384 -199l348 -181l-732 -379v-125z" />
    <glyph glyph-name="question" unicode="?" horiz-adv-x="1285" 
d="M587 1467c-162 0 -300.333 -54.998 -415 -164.998c-114.667 -110.667 -172 -242 -172 -394v-1v-2h111v2v1c0 122 46.333 227.333 139 316c93.333 88 205.666 132 336.999 132c132.667 0 245.334 -44.333 338.001 -133s139 -195.334 139 -320.001
s-46.667 -231.334 -140 -320.001c-92.667 -88.667 -205 -133 -337 -133v0h-48v-190h108v83c148.667 14 273.667 74.333 375 181c102 108 153 234.333 153 379c0 156.667 -57.667 290 -173 400c-114.667 109.333 -253 164 -415 164zM657.5 138.502
c17.667 -17.667 26.5 -39.167 26.5 -64.5c0 -24.667 -8.83301 -45.834 -26.5 -63.501s-39.167 -26.5 -64.5 -26.5s-46.833 8.83301 -64.5 26.5s-26.5 38.834 -26.5 63.501c0 25.333 8.83301 46.833 26.5 64.5s39.167 26.5 64.5 26.5s46.833 -8.83301 64.5 -26.5z" />
    <glyph glyph-name="at" unicode="@" horiz-adv-x="1620" 
d="M532 457c-61.333 61.333 -92 135.666 -92 222.999c0 86.667 30.667 160.667 92 222c61.333 62 135.333 93 222 93c87.333 0 161.666 -31 222.999 -93c61.333 -61.333 92 -135.333 92 -222c0 -87.333 -30.667 -161.666 -92 -222.999s-135.666 -92 -222.999 -92
c-86.667 0 -160.667 30.667 -222 92zM221 1235c-147.333 -147.333 -221.001 -325.002 -221.001 -533.002c0 -161.333 47 -307.666 141 -438.999c93.333 -131.333 216.333 -223 369 -275l32 94c-132 45.333 -238.667 125 -320 239s-122 241 -122 381c0 180 64 334 192 462
s282 192 462 192c180.667 0 335 -64 463 -192s192 -282 192 -462v-6c0 -146 -24 -243 -72 -291c-11.333 -11.333 -23.666 -17 -36.999 -17c-26.667 4.66699 -51 21.334 -73 50.001c-38.667 51.333 -58 132 -58 242v256h-89c-84 105.333 -192.667 158 -326 158
c-114 0 -211.667 -40.333 -293 -121c-80.667 -81.333 -121 -179 -121 -293c0 -114.667 40.333 -212.334 121 -293.001c81.333 -81.333 179 -122 293 -122c72.667 0 140.334 17.667 203.001 53c60.667 34 109.667 80.667 147 140c26 -68 65 -116.333 117 -145
c26.667 -15.333 51.667 -23.666 75 -24.999c43.333 0 80.666 15.667 111.999 47c68 68 101.667 188.667 101 362v5c0 208 -73.667 385.667 -221 533s-325.333 221 -534 221c-208 0 -385.667 -73.667 -533 -221z" />
    <glyph glyph-name="A" unicode="A" horiz-adv-x="1601" 
d="M1510 -2h-127l-627 1188l-623 -1188h-133l684 1302v1l72 134l69 -130z" />
    <glyph glyph-name="B" unicode="B" horiz-adv-x="1213" 
d="M104 103v828h459c76 0 150 -18 222 -54c140 -69.333 210 -189.333 210 -360c0 -170 -70 -290 -210 -360c-71.333 -35.333 -145.333 -53.333 -222 -54h-459zM599 1327c36.667 0 71.001 -6.66699 103.001 -20c58.667 -24.667 88 -67 88 -127
c-0.666992 -30 -10.334 -57 -29.001 -81c-32 -42.667 -85.667 -64 -161 -64h-496v292h495zM899.001 1180c0 90 -37.333 157.668 -112 203.001c-55.333 34.667 -118 52 -188 52h-599v-1435h104v0h459c89.333 0 180 22.333 272 67c178.667 86.667 268 236.667 268 450
c0 229.333 -102 385 -306 467c68 45.333 102 110.666 102 195.999z" />
    <glyph glyph-name="C" unicode="C" horiz-adv-x="1536" 
d="M1453 515c-43.333 -154.667 -130.667 -282.668 -262 -384.001c-132.667 -102.667 -283.334 -154 -452.001 -154c-204.667 0 -379.667 72.333 -525 217c-144.667 145.333 -217 320.333 -217 525c0 204 72.333 378.667 217 524c145.333 144.667 320.333 217 525 217
c171.333 0 324 -53 458 -159c132.667 -103.333 219.334 -234.666 260.001 -393.999h-112c-39.333 129.333 -114 236 -224 320c-112.667 84.667 -240 127 -382 127c-176 0 -326 -62 -450 -186s-186 -273.667 -186 -449c0 -176 62 -326 186 -450s274 -186 450 -186
c138.667 0 263.667 41 375 123c109.333 80 185 183 227 309h112z" />
    <glyph glyph-name="D" unicode="D" horiz-adv-x="1443" 
d="M554 109h-449v1214h447h2c50.667 4 111 -0.333008 181 -13c134.667 -24 242.667 -74 324 -150c110.667 -103.333 166 -251.333 166 -444c0 -192 -55.333 -339.667 -166 -443c-116.667 -109.333 -285 -164 -505 -164zM777 1414c-58.667 11.333 -134.667 17 -228 17l-359 1
h-189l-1 -1431h105v0h444c66 -4 138.333 1.66699 217 17c149.333 28.667 271.333 87 366 175c134 124.667 201 299 201 523s-67 398.333 -201 523c-94.667 88.667 -213 147 -355 175z" />
    <glyph glyph-name="E" unicode="E" horiz-adv-x="1206" 
d="M1092 513h-818v-105h818v105zM1096 1435h-1096v-1435h1096v106h-987v1222h987v107z" />
    <glyph glyph-name="F" unicode="F" horiz-adv-x="1206" 
d="M1092 513h-818v-105h818v105zM1096 1435h-1096v-1435l109 1v1327h987v107z" />
    <glyph glyph-name="G" unicode="G" horiz-adv-x="1575" 
d="M494 504l-0.000976562 -108.002h788c-57.333 -92 -132.666 -165.333 -225.999 -220c-97.333 -56.667 -201.333 -85 -312 -85c-174 0 -322.333 61.667 -445 185c-123.333 122.667 -185 271 -185 445s61.667 322.667 185 446c122.667 122.667 271 184 445 184
c140.667 0 266.667 -42 378 -126c110 -82.667 185 -189.334 225 -320.001h118c-41.333 162.667 -128.333 296.334 -261 401.001c-134.667 106 -288 159 -460 159c-205.333 0 -380.666 -72.667 -525.999 -218s-218 -320.666 -218 -525.999s72.667 -380.666 218 -525.999
s320.666 -218 525.999 -218c164 0 312.333 50 445 150c129.333 98 218.333 223.667 267 377h-962z" />
    <glyph glyph-name="H" unicode="H" horiz-adv-x="1307" 
d="M1092 1434v-922h-987v922h-105v-1434h105v408h987v-408h105v1434h-105z" />
    <glyph glyph-name="I" unicode="I" horiz-adv-x="215" 
d="M105 1434h-105v-1434h105v1434z" />
    <glyph glyph-name="J" unicode="J" horiz-adv-x="1488" 
d="M1268 1434l-0.000976562 -1667c0 -164 -57.667 -303.333 -173 -418c-115.333 -115.333 -254.333 -173 -417 -173c-130 0 -247.333 38.667 -352 116c-102 74.667 -172.333 157.334 -211 248.001h-115c40.667 -121.333 123 -230.333 247 -327
c126.667 -98 270.334 -147 431.001 -147c193.333 0 358.333 68 495 204c136.667 137.333 205 303 205 497v1667h-110z" />
    <glyph glyph-name="K" unicode="K" horiz-adv-x="1476" 
d="M105 1433h-105v-1438h105v1438zM1346 1437h-149l-920 -917l941 -941h148l-941 941z" />
    <glyph glyph-name="L" unicode="L" horiz-adv-x="1201" 
d="M105 105v1328h-105v-1433h1091v105h-986z" />
    <glyph glyph-name="M" unicode="M" horiz-adv-x="1416" 
d="M656 260l-656 1176v-1436h109v977l541 -977l546 987v-987h111l-2 1433z" />
    <glyph glyph-name="N" unicode="N" horiz-adv-x="1406" 
d="M1191 1433v-1182l-1086 1077l-105 105v-1433h105v1180l1086 -1077l104 -103h1v1433h-105z" />
    <glyph glyph-name="O" unicode="O" horiz-adv-x="1584" 
d="M737 87c174.667 0 324 61.667 448 185c123.333 124 185 273.333 185 448s-61.667 324 -185 448c-124 123.333 -273.333 185 -448 185s-324 -61.667 -448 -185c-123.333 -124 -185 -273.333 -185 -448s61.667 -324 185 -448c124 -123.333 273.333 -185 448 -185zM737 1457
c203.333 0 377 -72 521 -216s216 -317.667 216 -521s-72 -377 -216 -521s-317.667 -216 -521 -216s-377 72 -521 216s-216 317.667 -216 521s72 377 216 521s317.667 216 521 216z" />
    <glyph glyph-name="P" unicode="P" horiz-adv-x="1104" 
d="M0 1433v-1433h105v397h348c90 0 180.667 22 272 66c179.333 87.333 269 238 269 452c0 213.333 -89.667 363.666 -269 450.999c-91.333 44.667 -182 67 -272 67h-453zM453 1329c76 0 150.333 -18 223 -54c139.333 -69.333 209 -189.333 209 -360
c0 -171.333 -70 -291.333 -210 -360c-72 -36 -146 -54.333 -222 -55h-348v829h348z" />
    <glyph glyph-name="Q" unicode="Q" horiz-adv-x="1608" 
d="M305 -21l-55.9971 -33l20 -34c18.667 -30 46.667 -59.667 84 -89c71.333 -56 153 -84 245 -84h287c67.333 0 127 -19.667 179 -59c27.333 -20.667 47.666 -41.667 60.999 -63l21 -33l33 20l55 34l-20 33c-18.667 30.667 -46.334 60.334 -83.001 89.001
c-72 56 -154 84 -246 84h-287c-66.667 0 -126.334 19.667 -179.001 59c-26.667 21.333 -46.667 42.666 -60 63.999l-22 33zM737.003 87c174.667 0 324 61.667 448 185c123.333 124 185 273.333 185 448s-61.667 324 -185 448c-124 123.333 -273.333 185 -448 185
s-324 -61.667 -448 -185c-123.333 -124 -185 -273.333 -185 -448s61.667 -324 185 -448c124 -123.333 273.333 -185 448 -185zM737.003 1457c203.333 0 377 -72 521 -216s216 -317.667 216 -521s-72 -377 -216 -521s-317.667 -216 -521 -216s-377 72 -521 216
s-216 317.667 -216 521s72 377 216 521s317.667 216 521 216z" />
    <glyph glyph-name="R" unicode="R" horiz-adv-x="1106" 
d="M728 1365c-91.333 44.667 -182 67.002 -272 67.002h-351v0h-105v-1432h105v396v0v104v0v828h351c76.667 0 151 -18 223 -54c139.333 -69.333 209 -189.333 209 -360s-69.667 -290.667 -209 -360c-72.667 -36 -147 -54 -223 -54h-206l105 -104l408 -396h155l-412 400
c115.333 13.333 214 48.666 296 105.999c129.333 91.333 194 227.333 194 408c0 213.333 -89.333 363.666 -268 450.999z" />
    <glyph glyph-name="S" unicode="S" horiz-adv-x="1143" 
d="M516 996c-50 0 -92.667 17.666 -128 52.999s-53 77.333 -53 126c0 50 17.667 92.667 53 128s78 53 128 53s92.667 -17.667 128 -53c36 -35.333 54 -78 54 -128v0h103v0c0 78.667 -27.667 145.667 -83 201c-56 55.333 -123.333 83 -202 83s-145.667 -27.667 -201 -83
c-56 -55.333 -84 -122.333 -84 -201c0 -78 28 -144.667 84 -200c2.66699 -2.66699 7.66699 -7.33398 15 -14.001c53.333 -45.333 115.333 -68 186 -68c114 0 211.333 -40 292 -120c80.667 -79.333 121 -175.333 121 -288c0 -111.333 -40.333 -206.666 -121 -285.999
c-80.667 -80 -178 -120 -292 -120c-112 0 -208.333 39 -289 117c-80 77.333 -121.333 171 -124 281h-103c2 -138.667 53.333 -256.667 154 -354c100 -98 220.667 -147 362 -147c142 0 263.667 50 365 150c101.333 98.667 152 218.334 152 359.001
c0 106.667 -31.333 203.667 -94 291c-60 86 -139.333 147.667 -238 185c-60 23.333 -121.667 35 -185 35z" />
    <glyph glyph-name="T" unicode="T" horiz-adv-x="1189" 
d="M1079 1432h-1079v-105h486v-1327h105v1327h488v105z" />
    <glyph glyph-name="U" unicode="U" horiz-adv-x="1418" 
d="M1308 731c-2.66699 -202.667 -67.667 -375.666 -195 -518.999s-280.333 -215 -459 -215c-179.333 0 -332.666 72 -459.999 216c-127.333 143.333 -192 316.666 -194 519.999v702h101v-702c2 -172 56.667 -318.667 164 -440c108 -121.333 237.667 -182 389 -182
s280.666 60.333 387.999 181s162.333 267 165 439v0v704h101v-704z" />
    <glyph glyph-name="V" unicode="V" horiz-adv-x="1601" 
d="M0 1435h127l627 -1187l623 1187h133l-684 -1302v-1l-72 -134l-68 130z" />
    <glyph glyph-name="W" unicode="W" horiz-adv-x="1895" 
d="M1087 5l-168 318l-168 -319l-751 1429h121l630 -1197l107 203l-523 994h121l463 -878l461 878h120l-521 -994l108 -203l628 1197h121z" />
    <glyph glyph-name="X" unicode="X" horiz-adv-x="1340" 
d="M1230 1434h-125l-490 -865l-491 865h-124l553 -975l-261 -459h125l198 350l198 -350h124l-260 459z" />
    <glyph glyph-name="Y" unicode="Y" horiz-adv-x="1248" 
d="M517 0h105v450l516 984h-114l-455 -874l-454 874h-115l517 -984v-450z" />
    <glyph glyph-name="Z" unicode="Z" horiz-adv-x="1195" 
d="M1085 1432h-1085v-105h886l-878 -1327h1075v105h-874z" />
    <glyph glyph-name="bracketleft" unicode="[" horiz-adv-x="303" 
d="M0 1432h98v-2h95v-105h-95v-1220h95v-105h-193v1432z" />
    <glyph glyph-name="backslash" unicode="\" horiz-adv-x="960" 
d="M745 0h115l-745 1432h-115z" />
    <glyph glyph-name="bracketright" unicode="]" horiz-adv-x="303" 
d="M193 0h-193v105h95v1220h-95v105h95v2h98v-1432z" />
    <glyph glyph-name="asciicircum" unicode="^" horiz-adv-x="539" 
d="M0 1026l215 415l214 -415h-107l-105 228l-110 -228h-107z" />
    <glyph glyph-name="underscore" unicode="_" horiz-adv-x="885" 
d="M775 0h-775v-103h775v103z" />
    <glyph glyph-name="grave" unicode="`" horiz-adv-x="471" 
d="M200 1525h113l-241 409h-120z" />
    <glyph glyph-name="a" unicode="a" horiz-adv-x="1584" 
d="M737 87c174.667 0 324 61.667 448 185c123.333 124 185 273.333 185 448s-61.667 324 -185 448c-124 123.333 -273.333 185 -448 185s-324 -61.667 -448 -185c-123.333 -124 -185 -273.333 -185 -448s61.667 -324 185 -448c124 -123.333 273.333 -185 448 -185zM1375 348
c-31.333 -52.667 -70.333 -102.333 -117 -149c-144 -144 -317.667 -216 -521 -216s-377 72 -521 216s-216 317.667 -216 521s72 377 216 521s317.667 216 521 216s377 -72 521 -216s216 -317.667 216 -521v-718h-99v346z" />
    <glyph glyph-name="b" unicode="b" horiz-adv-x="1213" 
d="M104 103v828h459c76 0 150 -18 222 -54c140 -69.333 210 -189.333 210 -360c0 -170 -70 -290 -210 -360c-71.333 -35.333 -145.333 -53.333 -222 -54h-459zM599 1327c36.667 0 71.001 -6.66699 103.001 -20c58.667 -24.667 88 -67 88 -127
c-0.666992 -30 -10.334 -57 -29.001 -81c-32 -42.667 -85.667 -64 -161 -64h-496v292h495zM899.001 1180c0 90 -37.333 157.668 -112 203.001c-55.333 34.667 -118 52 -188 52h-599v-1435h104v0h459c89.333 0 180 22.333 272 67c178.667 86.667 268 236.667 268 450
c0 229.333 -102 385 -306 467c68 45.333 102 110.666 102 195.999z" />
    <glyph glyph-name="c" unicode="c" horiz-adv-x="1536" 
d="M1453 515c-43.333 -154.667 -130.667 -282.668 -262 -384.001c-132.667 -102.667 -283.334 -154 -452.001 -154c-204.667 0 -379.667 72.333 -525 217c-144.667 145.333 -217 320.333 -217 525c0 204 72.333 378.667 217 524c145.333 144.667 320.333 217 525 217
c171.333 0 324 -53 458 -159c132.667 -103.333 219.334 -234.666 260.001 -393.999h-112c-39.333 129.333 -114 236 -224 320c-112.667 84.667 -240 127 -382 127c-176 0 -326 -62 -450 -186s-186 -273.667 -186 -449c0 -176 62 -326 186 -450s274 -186 450 -186
c138.667 0 263.667 41 375 123c109.333 80 185 183 227 309h112z" />
    <glyph glyph-name="d" unicode="d" horiz-adv-x="1443" 
d="M554 109h-449v1214h447h2c50.667 4 111 -0.333008 181 -13c134.667 -24 242.667 -74 324 -150c110.667 -103.333 166 -251.333 166 -444c0 -192 -55.333 -339.667 -166 -443c-116.667 -109.333 -285 -164 -505 -164zM777 1414c-58.667 11.333 -134.667 17 -228 17l-359 1
h-189l-1 -1431h105v0h444c66 -4 138.333 1.66699 217 17c149.333 28.667 271.333 87 366 175c134 124.667 201 299 201 523s-67 398.333 -201 523c-94.667 88.667 -213 147 -355 175z" />
    <glyph glyph-name="e" unicode="e" horiz-adv-x="1581" 
d="M1427 935c-35.333 135.333 -117.999 254.001 -247.999 356.001c-132 104 -282 156 -450 156c-201.333 0 -373.333 -71 -516 -213c-142 -142.667 -213 -314.334 -213 -515.001c0 -201.333 71 -373.333 213 -516c142.667 -142 314.667 -213 516 -213
c165.333 0 313.333 50.667 444 152c128.667 99.333 214.667 226.666 258 381.999h-117c-41.333 -124 -115 -225 -221 -303c-108 -79.333 -229.333 -121 -364 -125c-170.667 4 -316.334 66 -437.001 186c-120 120.667 -182.333 266.334 -187 437.001
c0 66 15.333 137.667 46 215zM196.001 1032c27.333 52 64.333 100.001 111 144.001c116.667 110.667 257.334 166 422.001 166c132 0 251 -37.667 357 -113c75.333 -54.667 133.666 -120.334 174.999 -197.001h-1065z" />
    <glyph glyph-name="f" unicode="f" horiz-adv-x="1201" 
d="M1091 407v105h-986v813h985v2h1v105h-1091v-1432h105v407h986z" />
    <glyph glyph-name="g" unicode="g" horiz-adv-x="1687" 
d="M1572 392h-161.001c-62.667 -126 -153.334 -227 -272.001 -303c-121.333 -78 -253.666 -117 -396.999 -117c-206 0 -381.667 72.667 -527 218s-218 321 -218 527c0 205.333 72.667 380.666 218 525.999s321 218 527 218c172 0 325.333 -53 460 -159
c132.667 -104.667 219.667 -237.334 261 -398.001h-115c-40 130.667 -115 237.334 -225 320.001c-113.333 84.667 -240.333 127 -381 127c-174.667 0 -324.334 -62 -449.001 -186c-123.333 -124 -185 -273.333 -185 -448c0 -175.333 61.667 -325 185 -449
c124.667 -123.333 274.334 -185 449.001 -185c132.667 0 254.667 39.333 366 118c106.667 76.667 183.334 175.334 230.001 296.001l234 2v-107z" />
    <glyph glyph-name="h" unicode="h" horiz-adv-x="1307" 
d="M1092 1434v-922h-987v922h-105v-1434h105v408h987v-408h105v1434h-105z" />
    <glyph glyph-name="i" unicode="i" horiz-adv-x="215" 
d="M105 1434h-105v-1434h105v1434z" />
    <glyph glyph-name="j" unicode="j" horiz-adv-x="821" 
d="M598 1432l-0.000976562 -716v0c0 -166 -58.333 -307.667 -175 -425s-257.667 -176.666 -423 -177.999v-113c196.667 1.33301 364.334 71.666 503.001 210.999c138.667 140 208 308.333 208 505v716h-113z" />
    <glyph glyph-name="k" unicode="k" horiz-adv-x="1286" 
d="M1176 1434h-147l-925 -984v984h-104v-1434h104v444l75 -70l1 1l399 -376h156l-482 454z" />
    <glyph glyph-name="l" unicode="l" horiz-adv-x="1201" 
d="M105 105v1328h-105v-1433h1091v105h-986z" />
    <glyph glyph-name="m" unicode="m" horiz-adv-x="1416" 
d="M656 260l-656 1176v-1436h109v977l541 -977l546 987v-987h111l-2 1433z" />
    <glyph glyph-name="n" unicode="n" horiz-adv-x="1418" 
d="M0 701c2.66699 202.667 67.667 375.666 195 518.999s280.333 215 459 215c179.333 0 332.666 -72 459.999 -216c127.333 -143.333 192 -316.666 194 -519.999v-702h-101v702c-2 172 -56.667 318.667 -164 440c-108 121.333 -237.667 182 -389 182
s-280.666 -60.333 -387.999 -181s-162.333 -267 -165 -439v0v-704h-101v704z" />
    <glyph glyph-name="o" unicode="o" horiz-adv-x="1584" 
d="M737 87c174.667 0 324 61.667 448 185c123.333 124 185 273.333 185 448s-61.667 324 -185 448c-124 123.333 -273.333 185 -448 185s-324 -61.667 -448 -185c-123.333 -124 -185 -273.333 -185 -448s61.667 -324 185 -448c124 -123.333 273.333 -185 448 -185zM737 1457
c203.333 0 377 -72 521 -216s216 -317.667 216 -521s-72 -377 -216 -521s-317.667 -216 -521 -216s-377 72 -521 216s-216 317.667 -216 521s72 377 216 521s317.667 216 521 216z" />
    <glyph glyph-name="p" unicode="p" horiz-adv-x="1104" 
d="M0 1433v-1433h105v397h348c90 0 180.667 22 272 66c179.333 87.333 269 238 269 452c0 213.333 -89.667 363.666 -269 450.999c-91.333 44.667 -182 67 -272 67h-453zM453 1329c76 0 150.333 -18 223 -54c139.333 -69.333 209 -189.333 209 -360
c0 -171.333 -70 -291.333 -210 -360c-72 -36 -146 -54.333 -222 -55h-348v829h348z" />
    <glyph glyph-name="q" unicode="q" horiz-adv-x="1609" 
d="M288 284c-122.667 123.333 -184 272 -184 446c0 172.667 61.333 320.667 184 444c123.333 122.667 271.666 184 444.999 184s321.666 -61.333 444.999 -184c122.667 -123.333 184 -271.333 184 -444c0 -174 -61.333 -322.667 -184 -446
c-123.333 -122.667 -271.666 -184 -444.999 -184s-321.666 61.333 -444.999 184zM1250 212c143.333 142.667 215 315.334 215 518.001c0 202 -71.667 374.333 -215 517c-142.667 143.333 -315 215 -517 215c-202.667 0 -375.334 -71.667 -518.001 -215
c-143.333 -142.667 -215 -315 -215 -517c0 -202.667 71.667 -375.334 215 -518.001c142.667 -143.333 315.334 -215 518.001 -215h717v106h-335c47.333 30 92.333 66.333 135 109z" />
    <glyph glyph-name="r" unicode="r" horiz-adv-x="1106" 
d="M105 500v828h351c76.667 0 151 -18 223 -54c139.333 -69.333 209 -189.333 209 -360s-69.667 -290.667 -209 -360c-72.667 -36 -147 -54 -223 -54h-351zM728 1365c-91.333 44.667 -182 67.002 -272 67.002h-456v-1432h105v396h250l408 -396h155l-412 400
c115.333 13.333 214 48.666 296 105.999c129.333 91.333 194 227.333 194 408c0 213.333 -89.333 363.666 -268 450.999z" />
    <glyph glyph-name="s" unicode="s" horiz-adv-x="1143" 
d="M516 996c-50 0 -92.667 17.666 -128 52.999s-53 77.333 -53 126c0 50 17.667 92.667 53 128s78 53 128 53s92.667 -17.667 128 -53c36 -35.333 54 -78 54 -128v0h103v0c0 78.667 -27.667 145.667 -83 201c-56 55.333 -123.333 83 -202 83s-145.667 -27.667 -201 -83
c-56 -55.333 -84 -122.333 -84 -201c0 -78 28 -144.667 84 -200c2.66699 -2.66699 7.66699 -7.33398 15 -14.001c53.333 -45.333 115.333 -68 186 -68c114 0 211.333 -40 292 -120c80.667 -79.333 121 -175.333 121 -288c0 -111.333 -40.333 -206.666 -121 -285.999
c-80.667 -80 -178 -120 -292 -120c-112 0 -208.333 39 -289 117c-80 77.333 -121.333 171 -124 281h-103c2 -138.667 53.333 -256.667 154 -354c100 -98 220.667 -147 362 -147c142 0 263.667 50 365 150c101.333 98.667 152 218.334 152 359.001
c0 106.667 -31.333 203.667 -94 291c-60 86 -139.333 147.667 -238 185c-60 23.333 -121.667 35 -185 35z" />
    <glyph glyph-name="t" unicode="t" horiz-adv-x="1189" 
d="M1079 1432h-1079v-105h486v-1327h105v1327h488v105z" />
    <glyph glyph-name="u" unicode="u" horiz-adv-x="1418" 
d="M1308 731c-2.66699 -202.667 -67.667 -375.666 -195 -518.999s-280.333 -215 -459 -215c-179.333 0 -332.666 72 -459.999 216c-127.333 143.333 -192 316.666 -194 519.999v702h101v-702c2 -172 56.667 -318.667 164 -440c108 -121.333 237.667 -182 389 -182
s280.666 60.333 387.999 181s162.333 267 165 439v0v704h101v-704z" />
    <glyph glyph-name="v" unicode="v" horiz-adv-x="1598" 
d="M0 1434h125l627 -1188l624 1188h131l-684 -1301v-1l-71 -132l-67 128z" />
    <glyph glyph-name="w" unicode="w" horiz-adv-x="1960" 
d="M1850 1434h-105l-648 -1234l-119 226l-53 100l-52 -100l-119 -226l-649 1234h-105l701 -1334l53 -100l52 100v0l119 226l119 -226l53 -100l52 100v0z" />
    <glyph glyph-name="x" unicode="x" horiz-adv-x="1340" 
d="M1230 1434h-125l-490 -865l-491 865h-124l553 -975l-261 -459h125l198 350l198 -350h124l-260 459z" />
    <glyph glyph-name="y" unicode="y" horiz-adv-x="1315" 
d="M1208 1436l-0.000976562 -1178v-163c-2 -186 -61.667 -345.333 -179 -478c-118 -132 -259 -198 -423 -198c-134.667 0 -256 46.667 -364 140c-108.667 92.667 -180.667 213 -216 361l-3 11h109l2 -7c34 -116 94.333 -209.667 181 -281s183.667 -107 291 -107
c134 0 250.333 54.667 349 164c96.667 109.333 146 241 148 395l-2 163v42c-52 -90 -122 -162.333 -210 -217c-88.667 -54 -183.667 -81 -285 -81c-165.333 0 -306.666 66.333 -423.999 199s-177 292.334 -179 479.001v756h105l-1 -755
c-2.66699 -133.333 44.666 -266.666 141.999 -399.999c102 -114 221 -171 357 -171c128.667 0 244 50.667 346 152c96.667 107.333 146.334 234.333 149.001 381v794z" />
    <glyph glyph-name="z" unicode="z" horiz-adv-x="1195" 
d="M1085 1432h-1085v-105h886l-878 -1327h1075v105h-874z" />
    <glyph glyph-name="braceleft" unicode="{" horiz-adv-x="467" 
d="M191 595c0 51.333 -23.999 92.334 -71.999 123.001c48 30.667 72 71.667 72 123v497c2.66699 12.667 16 26 40 40c34 20 76 33.333 126 40v98c-104.667 -16.667 -179 -47.667 -223 -93c-24.667 -26 -37.334 -52.667 -38.001 -80v-502c0 -41.333 -32 -82.333 -96 -123
c64 -40.667 96 -81.667 96 -123v-497c8 -33.333 17.333 -56 28 -68c40 -46.667 117.667 -83.334 233 -110.001v99c-50 6 -92 19 -126 39c-24 14 -37.333 27.333 -40 40v497z" />
    <glyph glyph-name="bar" unicode="|" horiz-adv-x="215" 
d="M105 1712h-105v-2135h105v2135z" />
    <glyph glyph-name="braceright" unicode="}" horiz-adv-x="467" 
d="M167 98c-3.33301 -12.667 -16.999 -26.001 -40.999 -40.001c-34 -20 -76 -33 -126 -39v-99c115.333 26.667 193 63.334 233 110.001c10.667 12 20 34.667 28 68v497c0 41.333 32 82.333 96 123c-64 40.667 -96 81.667 -96 123v502
c-0.666992 27.333 -13.334 54 -38.001 80c-44 45.333 -118.333 76.333 -223 93v-98c50 -6.66699 92 -20 126 -40c24 -14 37.667 -27.333 41 -40v-497c0 -51.333 24 -92.333 72 -123c-48 -30.667 -72 -71.667 -72 -123v-497z" />
    <glyph glyph-name="asciitilde" unicode="~" horiz-adv-x="1143" 
d="M0 594c59.333 110 153.664 164.999 282.997 164.999c101.333 0 190.333 -41.667 267 -125c60.667 -65.333 129.334 -98 206.001 -98c72.667 8 124.334 32 155.001 72l122 1c-59.333 -110 -153.666 -165 -282.999 -165c-101.333 0 -190.333 42 -267 126
c-62 64.667 -130 97 -204 97c-88.667 -1.33301 -138.667 -25.666 -150 -72.999h-129z" />
    <glyph glyph-name="exclamdown" unicode="&#xa1;" horiz-adv-x="291" 
d="M41 1174h102v-1174h-102v1174zM26.5 1300.5c-17.667 17.667 -26.5 39.167 -26.5 64.5c-0 24.667 8.83301 45.834 26.5 63.501s38.834 26.5 63.501 26.5c25.333 0 46.833 -8.83301 64.5 -26.5s26.5 -38.834 26.5 -63.501c0 -25.333 -8.83301 -46.833 -26.5 -64.5
s-39.167 -26.5 -64.5 -26.5c-24.667 0 -45.834 8.83301 -63.501 26.5z" />
    <glyph glyph-name="cent" unicode="&#xa2;" horiz-adv-x="1050" 
d="M234 388l344 662.001c-32.667 8.66699 -66.667 13 -102 13c-105.333 0 -195.333 -37 -270 -111c-74 -74.667 -111 -164.334 -111 -269.001c0 -105.333 37 -195.333 111 -270zM312 337.001c50 -23.333 104.667 -34.999 164 -34.999c82.667 0 157.334 24.667 224.001 74
c65.333 48 111.666 113 138.999 195h99c-30.667 -112 -88 -200.333 -172 -265c-85.333 -66 -182 -99 -290 -99c-75.333 0 -144.333 15.333 -207 46l-132 -253h-105l157 302c-17.333 13.333 -34 28 -50 44c-92.667 93.333 -139 205.666 -139 336.999
c-0 130.667 46.333 242.667 139 336c93.333 92.667 205.666 139 336.999 139c51.333 0 100.333 -7.66699 147 -23l154 297h105l-174 -334c21.333 -12 42 -26 62 -42c84.667 -66.667 141.334 -157 170.001 -271h-98c-26 84.667 -72 152 -138 202
c-12.667 10 -26 18.667 -40 26z" />
    <glyph glyph-name="sterling" unicode="&#xa3;" horiz-adv-x="1142" 
d="M453 650v89h-192c-34.667 55.333 -56.667 98 -66 128c-16 53.333 -12.333 111.333 11 174c36 97.333 84 172 144 224c60 51.333 128.667 76.666 206 75.999c69.333 -0.666992 135.333 -22 198 -64c62.667 -41.333 104.334 -92.333 125.001 -153
c30.667 -88 3.66699 -166.667 -81 -236h147c58 84.667 70.333 175.334 37 272.001c-28.667 82 -83.667 150.667 -165 206c-80.667 55.333 -167.334 83.333 -260.001 84c-100 0.666992 -189.667 -31.333 -269 -96c-78.667 -64.667 -140 -156.667 -184 -276
c-31.333 -84 -36 -164 -14 -240c8 -27.333 22.667 -60.333 44 -99h-134v-89h189c23.333 -35.333 40 -62.666 50 -81.999c15.333 -30.667 18.333 -59.334 9 -86.001c-5.33301 -14 -31 -60.667 -77 -140c-60.667 -104 -101.667 -218 -123 -342h904v96h-765
c44 113.333 69 175.333 75 186c61.333 112 94 174.333 98 187c13.333 41.333 5.33301 91 -24 149l-18 32h135z" />
    <glyph glyph-name="currency" unicode="&#xa4;" horiz-adv-x="731" 
d="M41 774c0 -56.667 15.667 -107 47 -151l-88 -87l73 -73l89 89c41.333 -28 88.666 -42 141.999 -42c56.667 0 107 15.333 151 46l93 -93l73 73l-95 94c28 42 41.667 89.667 41 143c0 53.333 -13.667 101 -41 143l95 95l-73 73l-94 -94c-43.333 31.333 -93.333 47 -150 47
c-53.333 0 -100.666 -14 -141.999 -42l-89 89l-73 -73l88 -87c-31.333 -44 -47 -94 -47 -150zM310 933c42.667 0 79 -15 109 -45c30 -30.667 45 -67.167 45 -109.5s-15 -78.833 -45 -109.5c-30 -30 -66.333 -45 -109 -45s-79 15 -109 45
c-30.667 30.667 -46 67.167 -46 109.5s15.333 78.833 46 109.5c30 30 66.333 45 109 45z" />
    <glyph glyph-name="yen" unicode="&#xa5;" horiz-adv-x="1248" 
d="M259 556v-103h256l2 -3v-114h-258v-103h258v-233h105v233h250v103h-250v114l2 3h248v103h-194l460 878h-114l-455 -874l-454 874h-115l461 -878h-202z" />
    <glyph glyph-name="brokenbar" unicode="&#xa6;" 
 />
    <glyph glyph-name="section" unicode="&#xa7;" horiz-adv-x="925" 
d="M677 78c78 76.667 117.001 169.001 117.001 277.001c0 58.667 -13 114.667 -39 168c17.333 33.333 30.333 95 39 185c14 151.333 -57 267 -213 347c-42.667 32 -104 48 -184 48l-23 -1c-29.333 4.66699 -54.666 17.667 -75.999 39c-27.333 26.667 -41 59.334 -41 98.001
c0 38 13.667 70.333 41 97c27.333 27.333 60.333 41 99 41c93.333 0 140 -46 140 -138v-1h79v1c0 145.333 -73 218 -219 218c-60.667 0 -112.334 -21.333 -155.001 -64s-64 -94 -64 -154c0 -60.667 21.333 -112.334 64 -155.001c2.66699 -2 6.66699 -5.33301 12 -10
c4.66699 -4 9.66699 -8 15 -12c-10.667 -7.33301 -19.667 -14.666 -27 -21.999c-42.667 -42.667 -64 -94.334 -64 -155.001c0 -60 21.333 -111.333 64 -154c2.66699 -2.66699 6.66699 -6.33398 12 -11.001c41.333 -34.667 89 -52 143 -52c87.333 0 162 -30.667 224 -92
s93 -135 93 -221s-31 -159.667 -93 -221c-62 -60.667 -136.667 -91 -224 -91c-86.667 0 -160.667 29.667 -222 89c-62 60 -94 132.333 -96 217h-79c2 -106.667 41.333 -197.667 118 -273c77.333 -75.333 170.333 -113 279 -113c109.333 0 202.666 38.333 279.999 115z
M677.001 78.001c78 76.667 117.001 169.001 117.001 277.001c0 58.667 -13 114.667 -39 168c17.333 33.333 30.333 95 39 185c14 151.333 -57 267 -213 347c-42.667 32 -104 48 -184 48l-23 -1c-29.333 4.66699 -54.666 17.667 -75.999 39
c-27.333 26.667 -41 59.334 -41 98.001c0 38 13.667 70.333 41 97c27.333 27.333 60.333 41 99 41c93.333 0 140 -46 140 -138v-1h79v1c0 145.333 -73 218 -219 218c-60.667 0 -112.334 -21.333 -155.001 -64s-64 -94 -64 -154c0 -60.667 21.333 -112.334 64 -155.001
c2.66699 -2 6.66699 -5.33301 12 -10c4.66699 -4 9.66699 -8 15 -12c-10.667 -7.33301 -19.667 -14.666 -27 -21.999c-42.667 -42.667 -64 -94.334 -64 -155.001c0 -60 21.333 -111.333 64 -154c2.66699 -2.66699 6.66699 -6.33398 12 -11.001
c41.333 -34.667 89 -52 143 -52c87.333 0 162 -30.667 224 -92s93 -135 93 -221s-31 -159.667 -93 -221c-62 -60.667 -136.667 -91 -224 -91c-86.667 0 -160.667 29.667 -222 89c-62 60 -94 132.333 -96 217h-79c2 -106.667 41.333 -197.667 118 -273
c77.333 -75.333 170.333 -113 279 -113c109.333 0 202.666 38.333 279.999 115zM539.002 720.002c-46 18 -93.333 27 -142 27c-38.667 0 -71.667 13.667 -99 41c-27.333 26.667 -41 59 -41 97c0 38.667 13.667 71.334 41 98.001c21.333 21.333 47 34.333 77 39
c7.33301 -0.666992 14.666 -1 21.999 -1c87.333 0 162 -30.667 224 -92c62 -60.667 93 -134.334 93 -221.001c0 -46.667 -10 -74.334 -30 -83.001c-41.333 42.667 -89.666 74.334 -144.999 95.001zM539.002 720.002c-46 18 -93.333 27 -142 27
c-38.667 0 -71.667 13.667 -99 41c-27.333 26.667 -41 59 -41 97c0 38.667 13.667 71.334 41 98.001c21.333 21.333 47 34.333 77 39c7.33301 -0.666992 14.666 -1 21.999 -1c87.333 0 162 -30.667 224 -92c62 -60.667 93 -134.334 93 -221.001
c0 -46.667 -10 -74.334 -30 -83.001c-41.333 42.667 -89.666 74.334 -144.999 95.001z" />
    <glyph glyph-name="dieresis" unicode="&#xa8;" horiz-adv-x="548" 
d="M154.5 1637.5c17.667 -17.667 26.5 -39.167 26.5 -64.5c0 -24.667 -8.83301 -45.834 -26.5 -63.501s-38.834 -26.5 -63.501 -26.5c-25.333 0 -46.833 8.83301 -64.5 26.5s-26.5 38.834 -26.5 63.501c0 25.333 8.83301 46.833 26.5 64.5s39.167 26.5 64.5 26.5
c24.667 0 45.834 -8.83301 63.501 -26.5zM411.5 1637.5c17.667 -17.667 26.5 -39.167 26.5 -64.5c0 -24.667 -8.83301 -45.834 -26.5 -63.501s-38.834 -26.5 -63.501 -26.5c-25.333 0 -46.833 8.83301 -64.5 26.5s-26.5 38.834 -26.5 63.501
c0 25.333 8.83301 46.833 26.5 64.5s39.167 26.5 64.5 26.5c24.667 0 45.834 -8.83301 63.501 -26.5z" />
    <glyph glyph-name="copyright" unicode="&#xa9;" horiz-adv-x="1551" 
d="M1177 629c-30.667 -110.667 -86.332 -196.998 -166.999 -258.998c-82.667 -64 -176 -96 -280 -96c-126 0 -234 44.667 -324 134c-89.333 89.333 -134 197.333 -134 324s44.667 234.667 134 324c90 89.333 198 134 324 134c106 0 200.333 -32.667 283 -98
c82 -64 137.333 -152.333 166 -265h-102c-24.667 81.333 -68.334 145.666 -131.001 192.999c-63.333 48 -135.333 72 -216 72c-99.333 0 -184.333 -35 -255 -105c-70 -70.667 -105 -155.667 -105 -255s35 -184.333 105 -255c70.667 -70 155.667 -105 255 -105
c78.667 0 149.667 23.333 213 70c62 45.333 106 107.666 132 186.999h102zM1230 1226c140.667 -140.667 211 -310.667 211 -510c0 -198.667 -70.333 -368.334 -211 -509.001s-310.667 -211 -510 -211c-198.667 0 -368.334 70.333 -509.001 211s-211 310.334 -211 509.001
c0 199.333 70.333 369.333 211 510s310.334 211 509.001 211c199.333 0 369.333 -70.333 510 -211zM726.002 1335c-169.333 0 -314 -60 -434 -180s-180 -265 -180 -435c0 -169.333 60 -314 180 -434s264.667 -180 434 -180c170 0 315 60 435 180s180 264.667 180 434
c0 170 -60 315 -180 435s-265 180 -435 180z" />
    <glyph glyph-name="ordfeminine" unicode="&#xaa;" 
 />
    <glyph glyph-name="guillemotleft" unicode="&#xab;" horiz-adv-x="1172" 
d="M682 385l-682 353l682 354v-115l-259 -134c-122 -63.333 -189 -98.333 -201 -105l460 -237v-116zM1062 385l-682 353l682 354v-115l-259 -134c-122 -63.333 -189 -98.333 -201 -105l460 -237v-116z" />
    <glyph glyph-name="logicalnot" unicode="&#xac;" 
 />
    <glyph glyph-name="registered" unicode="&#xae;" horiz-adv-x="1551" 
d="M1230 1216c140.667 -140.667 211 -310.667 211 -510c0 -198.667 -70.333 -368.334 -211 -509.001s-310.667 -211 -510 -211c-198.667 0 -368.334 70.333 -509.001 211s-211 310.334 -211 509.001c0 199.333 70.333 369.333 211 510s310.334 211 509.001 211
c199.333 0 369.333 -70.333 510 -211zM726 1325c-169.333 0 -314 -60 -434 -180s-180 -265 -180 -435c0 -169.333 60 -314 180 -434s264.667 -180 434 -180c170 0 315 60 435 180s180 264.667 180 434c0 170 -60 315 -180 435s-265 180 -435 180zM741 607c42 0 83 10 123 30
c74.667 37.333 112 102.333 112 195s-37.333 157.667 -112 195c-40 20 -81 30 -123 30h-188v-450h188zM1069 832c0 -110 -39.668 -192.667 -119.001 -248c-49.333 -34.667 -98.333 -55 -147 -61l243 -235h-133l-236 229h-124v-229h-91v859h279
c54.667 0 109.334 -13.333 164.001 -40c109.333 -53.333 164 -145 164 -275z" />
    <glyph glyph-name="macron" unicode="&#xaf;" horiz-adv-x="1045" 
d="M935 1433h-935v-103h935v103z" />
    <glyph glyph-name="degree" unicode="&#xb0;" horiz-adv-x="448" 
d="M288.5 1388.5c33 -33 49.5 -72.833 49.5 -119.5s-16.5 -86.5 -49.5 -119.5s-72.833 -49.5 -119.5 -49.5s-86.5 16.5 -119.5 49.5s-49.5 72.833 -49.5 119.5s16.5 86.5 49.5 119.5s72.833 49.5 119.5 49.5s86.5 -16.5 119.5 -49.5zM169 1332
c-16.667 0 -30.667 -5.83301 -42 -17.5s-17 -25.5 -17 -41.5c0 -16.667 5.66699 -30.667 17 -42s25.333 -17 42 -17c16 0 29.833 5.66699 41.5 17s17.5 25.333 17.5 42c0 16 -5.83301 29.833 -17.5 41.5s-25.5 17.5 -41.5 17.5z" />
    <glyph glyph-name="plusminus" unicode="&#xb1;" 
 />
    <glyph glyph-name="uni00B2" unicode="&#xb2;" 
 />
    <glyph glyph-name="uni00B3" unicode="&#xb3;" 
 />
    <glyph glyph-name="acute" unicode="&#xb4;" horiz-adv-x="471" 
d="M363 1934h-120l-241 -409h113z" />
    <glyph glyph-name="mu" unicode="&#xb5;" horiz-adv-x="1412" 
d="M100 1435h-100.002v-1646h100v556c26 -46 57 -89.333 93 -130c126.667 -143.333 279.334 -215 458.001 -215c178 -0 330.333 71.333 457 214c126.667 143.333 191.334 316 194.001 518v702h-95v-702c-2.66699 -172.667 -58 -320 -166 -442
c-108 -121.333 -238 -182 -390 -182s-282.333 61 -391 183c-90.667 103.333 -144 224 -160 362v782z" />
    <glyph glyph-name="paragraph" unicode="&#xb6;" horiz-adv-x="730" 
d="M346 905v-495.999h-102v507c-52.667 12 -100 34.333 -142 67c-68 51.333 -102 113.666 -102 186.999c-0 72.667 33.833 135 101.5 187s149.5 78 245.5 78v-1h273v-90h-74v-935h-102v935h-97v-439h-1z" />
    <glyph glyph-name="periodcentered" unicode="&#xb7;" horiz-adv-x="291" 
d="M154.5 759.5c17.667 -17.667 26.5 -39.167 26.5 -64.5c0 -24.667 -8.83301 -45.834 -26.5 -63.501s-38.834 -26.5 -63.501 -26.5c-25.333 0 -46.833 8.83301 -64.5 26.5s-26.5 38.834 -26.5 63.501c0 25.333 8.83301 46.833 26.5 64.5s39.167 26.5 64.5 26.5
c24.667 0 45.834 -8.83301 63.501 -26.5z" />
    <glyph glyph-name="periodcentered" unicode="&#x2219;" horiz-adv-x="291" 
d="M154.5 759.5c17.667 -17.667 26.5 -39.167 26.5 -64.5c0 -24.667 -8.83301 -45.834 -26.5 -63.501s-38.834 -26.5 -63.501 -26.5c-25.333 0 -46.833 8.83301 -64.5 26.5s-26.5 38.834 -26.5 63.501c0 25.333 8.83301 46.833 26.5 64.5s39.167 26.5 64.5 26.5
c24.667 0 45.834 -8.83301 63.501 -26.5z" />
    <glyph glyph-name="cedilla" unicode="&#xb8;" horiz-adv-x="400" 
d="M0 -312v-104c15.333 -2 30 -3 44 -3c68 0 126 18 174 54s72 79.333 72 130c0 42.667 -17.333 80.667 -52 114c-34.667 32.667 -78.667 54 -132 64v58h-106v-153h6c39.333 0 73.166 -7.83301 101.499 -23.5s42.5 -34.5 42.5 -56.5s-14.167 -40.833 -42.5 -56.5
s-62.166 -23.5 -101.499 -23.5h-6z" />
    <glyph glyph-name="uni00B9" unicode="&#xb9;" 
 />
    <glyph glyph-name="ordmasculine" unicode="&#xba;" 
 />
    <glyph glyph-name="guillemotright" unicode="&#xbb;" horiz-adv-x="1172" 
d="M380 501l460 237c-12 6.66699 -79 41.667 -201 105l-259 134v115l682 -354l-682 -353v116zM0 501l460 237c-12 6.66699 -79 41.667 -201 105l-259 134v115l682 -354l-682 -353v116z" />
    <glyph glyph-name="onequarter" unicode="&#xbc;" 
 />
    <glyph glyph-name="onehalf" unicode="&#xbd;" 
 />
    <glyph glyph-name="threequarters" unicode="&#xbe;" 
 />
    <glyph glyph-name="questiondown" unicode="&#xbf;" horiz-adv-x="1285" 
d="M588 -18c162 0 300.333 54.998 415 164.998c114.667 110.667 172 242 172 394v1v2h-111v-2v-1c0 -122 -46.333 -227.333 -139 -316c-93.333 -88 -205.666 -132 -336.999 -132c-132.667 0 -245.334 44.333 -338.001 133s-139 195.334 -139 320.001
s46.667 231.334 140 320.001c92.667 88.667 205 133 337 133v0h48v190h-108v-83c-148.667 -14 -273.667 -74.333 -375 -181c-102 -108 -153 -234.333 -153 -379c0 -156.667 57.667 -290 173 -400c114.667 -109.333 253 -164 415 -164zM650.5 1481.5
c17.667 -17.667 26.5 -39.167 26.5 -64.5c0 -24.667 -8.83301 -45.834 -26.5 -63.501s-39.167 -26.5 -64.5 -26.5s-46.833 8.83301 -64.5 26.5s-26.5 38.834 -26.5 63.501c0 25.333 8.83301 46.833 26.5 64.5s39.167 26.5 64.5 26.5s46.833 -8.83301 64.5 -26.5z" />
    <glyph glyph-name="Agrave" unicode="&#xc0;" horiz-adv-x="1615" 
d="M373 511l380 722l379 -722h-759zM1400 0h105l-700 1332l-52 100l-53 -99v-1l-700 -1332h105l213 406h869zM626 1449h113l-154 256h-120z" />
    <glyph glyph-name="Aacute" unicode="&#xc1;" horiz-adv-x="1615" 
d="M373 511l380 722l379 -722h-759zM1400 0h105l-700 1332l-52 100l-53 -99v-1l-700 -1332h105l213 406h869zM1029 1705h-120l-154 -256h113z" />
    <glyph glyph-name="Acircumflex" unicode="&#xc2;" horiz-adv-x="1615" 
d="M596 1460l157 249l157 -249h-102l-54 97l-56 -97h-102zM373 511l380 722l379 -722h-759zM1400 0h105l-700 1332l-52 100l-53 -99v-1l-700 -1332h105l213 406h869z" />
    <glyph glyph-name="Atilde" unicode="&#xc3;" horiz-adv-x="1615" 
d="M373 511l380 722l379 -722h-759zM1400 0h105l-700 1332l-52 100l-53 -99v-1l-700 -1332h105l213 406h869zM425 1559c46.667 86 110.332 129 190.999 129c62.667 0 117.667 -25.667 165 -77c31.333 -34 66.333 -51 105 -51c36 4 63 18 81 42h107
c-46 -86 -109.333 -129 -190 -129c-63.333 0 -118.666 26 -165.999 78c-32 33.333 -66.667 50 -104 50c-42 -0.666992 -66.333 -14.667 -73 -42h-116z" />
    <glyph glyph-name="Adieresis" unicode="&#xc4;" horiz-adv-x="1615" 
d="M373 511l380 722l379 -722h-759zM1400 0h105l-700 1332l-52 100l-53 -99v-1l-700 -1332h105l213 406h869zM692.5 1637.5c17.667 -17.667 26.5 -39.167 26.5 -64.5c0 -24.667 -8.83301 -45.834 -26.5 -63.501s-38.834 -26.5 -63.501 -26.5
c-25.333 0 -46.833 8.83301 -64.5 26.5s-26.5 38.834 -26.5 63.501c0 25.333 8.83301 46.833 26.5 64.5s39.167 26.5 64.5 26.5c24.667 0 45.834 -8.83301 63.501 -26.5zM949.5 1637.5c17.667 -17.667 26.5 -39.167 26.5 -64.5c0 -24.667 -8.83301 -45.834 -26.5 -63.501
s-38.834 -26.5 -63.501 -26.5c-25.333 0 -46.833 8.83301 -64.5 26.5s-26.5 38.834 -26.5 63.501c0 25.333 8.83301 46.833 26.5 64.5s39.167 26.5 64.5 26.5c24.667 0 45.834 -8.83301 63.501 -26.5z" />
    <glyph glyph-name="Aring" unicode="&#xc5;" horiz-adv-x="1615" 
d="M373 511l380 722l379 -722h-759zM1400 0h105l-700 1332l-52 100l-53 -99v-1l-700 -1332h105l213 406h869zM829.5 1677.5c22.333 -22.333 33.5 -49.166 33.5 -80.499s-11.167 -58 -33.5 -80s-49.166 -33 -80.499 -33s-58 11 -80 33s-33 48.667 -33 80s11 58.166 33 80.499
s48.667 33.5 80 33.5s58.166 -11.167 80.499 -33.5zM749 1639c-10.667 0 -19.834 -3.83301 -27.501 -11.5s-11.5 -16.834 -11.5 -27.501c0 -11.333 3.83301 -20.833 11.5 -28.5s16.834 -11.5 27.501 -11.5c11.333 0 20.833 3.83301 28.5 11.5s11.5 17.167 11.5 28.5
c0 10.667 -3.83301 19.834 -11.5 27.501s-17.167 11.5 -28.5 11.5z" />
    <glyph glyph-name="AE" unicode="&#xc6;" horiz-adv-x="1660" 
d="M931 1330h619v105l-728 -1v-9l-822 -1425h135l229 408h461l1 -408h724v106h-619v302h615v105h-615v817zM425 513l399 674v-674h-399z" />
    <glyph glyph-name="Ccedilla" unicode="&#xc7;" horiz-adv-x="1545" 
d="M712 -152h6.00098c39.333 0 73.166 -7.83301 101.499 -23.5s42.5 -34.5 42.5 -56.5s-14.167 -40.833 -42.5 -56.5s-62.166 -23.5 -101.499 -23.5h-6v-104c15.333 -2 30 -3 44 -3c68 0 126 18 174 54s72 79.333 72 130c0 42.667 -17.333 80.667 -52 114
c-34.667 32.667 -78.667 54 -132 64v52c130 15.333 248.333 64.333 355 147c128.667 99.333 214.667 226.666 258 381.999h-117c-41.333 -124 -115 -225 -221 -303c-108 -79.333 -229.333 -119 -364 -119c-170.667 0 -316.334 60 -437.001 180
c-120 120.667 -180 266.334 -180 437.001c0 170 60 315.333 180 436c120.667 120 266.334 180 437.001 180c137.333 0 260.666 -41 369.999 -123c107.333 -81.333 180.333 -185.666 219 -312.999h117c-40.667 159.333 -126 290 -256 392c-132 104 -282 156 -450 156
c-201.333 0 -373.333 -71 -516 -213c-142 -142.667 -213 -314.334 -213 -515.001c0 -201.333 71 -373.333 213 -516c138.667 -138 305 -209 499 -213v-142z" />
    <glyph glyph-name="Egrave" unicode="&#xc8;" horiz-adv-x="1204" 
d="M1094 1330v105h-989v2h-105v-1437h105v0h989v105h-989v303h989v105h-989v817h989zM576 1449h113l-154 256h-120z" />
    <glyph glyph-name="Eacute" unicode="&#xc9;" horiz-adv-x="1204" 
d="M1094 1330v105h-989v2h-105v-1437h105v0h989v105h-989v303h989v105h-989v817h989zM729 1705h-120l-154 -256h113z" />
    <glyph glyph-name="Ecircumflex" unicode="&#xca;" horiz-adv-x="1204" 
d="M1094 1330v105h-989v2h-105v-1437h105v0h989v105h-989v303h989v105h-989v817h989zM446 1460l157 249l157 -249h-102l-54 97l-56 -97h-102z" />
    <glyph glyph-name="Edieresis" unicode="&#xcb;" horiz-adv-x="1204" 
d="M1094 1330v105h-989v2h-105v-1437h105v0h989v105h-989v303h989v105h-989v817h989zM522.5 1637.5c17.667 -17.667 26.5 -39.167 26.5 -64.5c0 -24.667 -8.83301 -45.834 -26.5 -63.501s-38.834 -26.5 -63.501 -26.5c-25.333 0 -46.833 8.83301 -64.5 26.5
s-26.5 38.834 -26.5 63.501c0 25.333 8.83301 46.833 26.5 64.5s39.167 26.5 64.5 26.5c24.667 0 45.834 -8.83301 63.501 -26.5zM779.5 1637.5c17.667 -17.667 26.5 -39.167 26.5 -64.5c0 -24.667 -8.83301 -45.834 -26.5 -63.501s-38.834 -26.5 -63.501 -26.5
c-25.333 0 -46.833 8.83301 -64.5 26.5s-26.5 38.834 -26.5 63.501c0 25.333 8.83301 46.833 26.5 64.5s39.167 26.5 64.5 26.5c24.667 0 45.834 -8.83301 63.501 -26.5z" />
    <glyph glyph-name="Igrave" unicode="&#xcc;" horiz-adv-x="384" 
d="M268 1434h-105v-1434h105v1434zM161 1487h113l-154 256h-120z" />
    <glyph glyph-name="Iacute" unicode="&#xcd;" horiz-adv-x="384" 
d="M109 1434h-105v-1434h105v1434zM274 1753h-120l-154 -256h113z" />
    <glyph glyph-name="Icircumflex" unicode="&#xce;" horiz-adv-x="423" 
d="M209 1434h-105v-1434h105v1434zM0 1490l157 249l156 -249h-101l-54 97l-57 -97h-101z" />
    <glyph glyph-name="Idieresis" unicode="&#xcf;" horiz-adv-x="548" 
d="M268 1434h-105v-1434h105v1434zM154.5 1657.5c17.667 -17.667 26.5 -39.167 26.5 -64.5c0 -24.667 -8.83301 -45.834 -26.5 -63.501s-38.834 -26.5 -63.501 -26.5c-25.333 0 -46.833 8.83301 -64.5 26.5s-26.5 38.834 -26.5 63.501c0 25.333 8.83301 46.833 26.5 64.5
s39.167 26.5 64.5 26.5c24.667 0 45.834 -8.83301 63.501 -26.5zM411.5 1657.5c17.667 -17.667 26.5 -39.167 26.5 -64.5c0 -24.667 -8.83301 -45.834 -26.5 -63.501s-38.834 -26.5 -63.501 -26.5c-25.333 0 -46.833 8.83301 -64.5 26.5s-26.5 38.834 -26.5 63.501
c0 25.333 8.83301 46.833 26.5 64.5s39.167 26.5 64.5 26.5c24.667 0 45.834 -8.83301 63.501 -26.5z" />
    <glyph glyph-name="Eth" unicode="&#xd0;" horiz-adv-x="1632" 
d="M294 788v535h449c50.667 4 111 -0.333008 181 -13c134.667 -24 242.667 -74 324 -150c110.667 -103.333 166 -251.333 166 -444c0 -192 -55.333 -339.667 -166 -443c-116.667 -109.333 -285 -164 -505 -164h-449v577h175v102h-175zM0 788v-102h189v-685h549
c66 -4 138.333 1.66699 217 17c149.333 28.667 271.333 87 366 175c134 124.667 201 299 201 523s-67 398.333 -201 523c-94.667 88.667 -213 147 -355 175c-58.667 11.333 -134.667 17 -228 17l-359 1h-189v-644h-190z" />
    <glyph glyph-name="Ntilde" unicode="&#xd1;" horiz-adv-x="1406" 
d="M1191 1433v-1182l-1086 1077l-105 105v-1433h105v1180l1086 -1077l104 -103h1v1433h-105zM375 1559c46.667 86 110.332 129 190.999 129c62.667 0 117.667 -25.667 165 -77c31.333 -34 66.333 -51 105 -51c36 4 63 18 81 42h107c-46 -86 -109.333 -129 -190 -129
c-63.333 0 -118.666 26 -165.999 78c-32 33.333 -66.667 50 -104 50c-42 -0.666992 -66.333 -14.667 -73 -42h-116z" />
    <glyph glyph-name="Ograve" unicode="&#xd2;" horiz-adv-x="1594" 
d="M298 276c-122.667 122.667 -184 270.667 -184 444s61.333 321.333 184 444s270.667 184 444 184s321.333 -61.333 444 -184s184 -270.667 184 -444s-61.333 -321.333 -184 -444s-270.667 -184 -444 -184s-321.333 61.333 -444 184zM217 1245
c-144.667 -145.333 -217 -320.333 -217 -525s72.333 -379.667 217 -525c145.333 -144.667 320.333 -217 525 -217s379.667 72.333 525 217c144.667 145.333 217 320.333 217 525s-72.333 379.667 -217 525c-145.333 144.667 -320.333 217 -525 217
s-379.667 -72.333 -525 -217zM673 1514h113l-121 202h-120z" />
    <glyph glyph-name="Oacute" unicode="&#xd3;" horiz-adv-x="1594" 
d="M298 276c-122.667 122.667 -184 270.667 -184 444s61.333 321.333 184 444s270.667 184 444 184s321.333 -61.333 444 -184s184 -270.667 184 -444s-61.333 -321.333 -184 -444s-270.667 -184 -444 -184s-321.333 61.333 -444 184zM217 1245
c-144.667 -145.333 -217 -320.333 -217 -525s72.333 -379.667 217 -525c145.333 -144.667 320.333 -217 525 -217s379.667 72.333 525 217c144.667 145.333 217 320.333 217 525s-72.333 379.667 -217 525c-145.333 144.667 -320.333 217 -525 217
s-379.667 -72.333 -525 -217zM928 1716h-120l-121 -202h113z" />
    <glyph glyph-name="Ocircumflex" unicode="&#xd4;" horiz-adv-x="1594" 
d="M298 276c-122.667 122.667 -184 270.667 -184 444s61.333 321.333 184 444s270.667 184 444 184s321.333 -61.333 444 -184s184 -270.667 184 -444s-61.333 -321.333 -184 -444s-270.667 -184 -444 -184s-321.333 61.333 -444 184zM217 1245
c-144.667 -145.333 -217 -320.333 -217 -525s72.333 -379.667 217 -525c145.333 -144.667 320.333 -217 525 -217s379.667 72.333 525 217c144.667 145.333 217 320.333 217 525s-72.333 379.667 -217 525c-145.333 144.667 -320.333 217 -525 217
s-379.667 -72.333 -525 -217zM602 1483l142 226l143 -226h-92l-49 88l-52 -88h-92z" />
    <glyph glyph-name="Otilde" unicode="&#xd5;" horiz-adv-x="1594" 
d="M298 276c-122.667 122.667 -184 270.667 -184 444s61.333 321.333 184 444s270.667 184 444 184s321.333 -61.333 444 -184s184 -270.667 184 -444s-61.333 -321.333 -184 -444s-270.667 -184 -444 -184s-321.333 61.333 -444 184zM217 1245
c-144.667 -145.333 -217 -320.333 -217 -525s72.333 -379.667 217 -525c145.333 -144.667 320.333 -217 525 -217s379.667 72.333 525 217c144.667 145.333 217 320.333 217 525s-72.333 379.667 -217 525c-145.333 144.667 -320.333 217 -525 217
s-379.667 -72.333 -525 -217zM425 1559c46.667 86 110.332 129 190.999 129c62.667 0 117.667 -25.667 165 -77c31.333 -34 66.333 -51 105 -51c36 4 63 18 81 42h107c-46 -86 -109.333 -129 -190 -129c-63.333 0 -118.666 26 -165.999 78c-32 33.333 -66.667 50 -104 50
c-42 -0.666992 -66.333 -14.667 -73 -42h-116z" />
    <glyph glyph-name="Odieresis" unicode="&#xd6;" horiz-adv-x="1594" 
d="M298 276c-122.667 122.667 -184 270.667 -184 444s61.333 321.333 184 444s270.667 184 444 184s321.333 -61.333 444 -184s184 -270.667 184 -444s-61.333 -321.333 -184 -444s-270.667 -184 -444 -184s-321.333 61.333 -444 184zM217 1245
c-144.667 -145.333 -217 -320.333 -217 -525s72.333 -379.667 217 -525c145.333 -144.667 320.333 -217 525 -217s379.667 72.333 525 217c144.667 145.333 217 320.333 217 525s-72.333 379.667 -217 525c-145.333 144.667 -320.333 217 -525 217
s-379.667 -72.333 -525 -217zM692.5 1637.5c17.667 -17.667 26.5 -39.167 26.5 -64.5c0 -24.667 -8.83301 -45.834 -26.5 -63.501s-38.834 -26.5 -63.501 -26.5c-25.333 0 -46.833 8.83301 -64.5 26.5s-26.5 38.834 -26.5 63.501c0 25.333 8.83301 46.833 26.5 64.5
s39.167 26.5 64.5 26.5c24.667 0 45.834 -8.83301 63.501 -26.5zM949.5 1637.5c17.667 -17.667 26.5 -39.167 26.5 -64.5c0 -24.667 -8.83301 -45.834 -26.5 -63.501s-38.834 -26.5 -63.501 -26.5c-25.333 0 -46.833 8.83301 -64.5 26.5s-26.5 38.834 -26.5 63.501
c0 25.333 8.83301 46.833 26.5 64.5s39.167 26.5 64.5 26.5c24.667 0 45.834 -8.83301 63.501 -26.5z" />
    <glyph glyph-name="multiply" unicode="&#xd7;" horiz-adv-x="731" 
d="M73 919l-73 -73l238 -237l-238 -238l73 -73l237 238l238 -238l73 73l-238 238l238 237l-73 73l-238 -238z" />
    <glyph glyph-name="Oslash" unicode="&#xd8;" horiz-adv-x="1594" 
d="M217 1245c-144.667 -145.333 -217 -320.333 -217 -525s72.333 -379.667 217 -525c145.333 -144.667 320.333 -217 525 -217s379.667 72.333 525 217c144.667 145.333 217 320.333 217 525s-72.333 379.667 -217 525c-145.333 144.667 -320.333 217 -525 217
s-379.667 -72.333 -525 -217zM1222 1554h-122l-864 -1661h122zM298 276c-122.667 122.667 -184 270.667 -184 444s61.333 321.333 184 444s270.667 184 444 184s321.333 -61.333 444 -184s184 -270.667 184 -444s-61.333 -321.333 -184 -444s-270.667 -184 -444 -184
s-321.333 61.333 -444 184z" />
    <glyph glyph-name="Ugrave" unicode="&#xd9;" horiz-adv-x="1412" 
d="M1302 1432l-95.002 0.000976562v-701v0c-2.66699 -172.667 -58 -319.667 -166 -441s-238 -182 -390 -182s-282.333 61 -391 183c-108 122 -163 269.333 -165 442v0v699h-95v-699c2 -202.667 66.333 -375.334 193 -518.001c126.667 -143.333 279.334 -215 458.001 -215
c178 -0 330.333 71.333 457 214s191.334 315 194.001 517v0v701zM625.998 1449h113l-154 256h-120z" />
    <glyph glyph-name="Uacute" unicode="&#xda;" horiz-adv-x="1412" 
d="M1302 1432l-95.002 0.000976562v-701v0c-2.66699 -172.667 -58 -319.667 -166 -441s-238 -182 -390 -182s-282.333 61 -391 183c-108 122 -163 269.333 -165 442v0v699h-95v-699c2 -202.667 66.333 -375.334 193 -518.001c126.667 -143.333 279.334 -215 458.001 -215
c178 -0 330.333 71.333 457 214s191.334 315 194.001 517v0v701zM808.998 1705h-120l-154 -256h113z" />
    <glyph glyph-name="Ucircumflex" unicode="&#xdb;" horiz-adv-x="1412" 
d="M1302 1432l-95.002 0.000976562v-701v0c-2.66699 -172.667 -58 -319.667 -166 -441s-238 -182 -390 -182s-282.333 61 -391 183c-108 122 -163 269.333 -165 442v0v699h-95v-699c2 -202.667 66.333 -375.334 193 -518.001c126.667 -143.333 279.334 -215 458.001 -215
c178 -0 330.333 71.333 457 214s191.334 315 194.001 517v0v701zM505.998 1460l157 249l157 -249h-102l-54 97l-56 -97h-102z" />
    <glyph glyph-name="Udieresis" unicode="&#xdc;" horiz-adv-x="1412" 
d="M1302 1432l-95.002 0.000976562v-701v0c-2.66699 -172.667 -58 -319.667 -166 -441s-238 -182 -390 -182s-282.333 61 -391 183c-108 122 -163 269.333 -165 442v0v699h-95v-699c2 -202.667 66.333 -375.334 193 -518.001c126.667 -143.333 279.334 -215 458.001 -215
c178 -0 330.333 71.333 457 214s191.334 315 194.001 517v0v701zM602.498 1637.5c17.667 -17.667 26.5 -39.167 26.5 -64.5c0 -24.667 -8.83301 -45.834 -26.5 -63.501s-38.834 -26.5 -63.501 -26.5c-25.333 0 -46.833 8.83301 -64.5 26.5s-26.5 38.834 -26.5 63.501
c0 25.333 8.83301 46.833 26.5 64.5s39.167 26.5 64.5 26.5c24.667 0 45.834 -8.83301 63.501 -26.5zM859.498 1637.5c17.667 -17.667 26.5 -39.167 26.5 -64.5c0 -24.667 -8.83301 -45.834 -26.5 -63.501s-38.834 -26.5 -63.501 -26.5
c-25.333 0 -46.833 8.83301 -64.5 26.5s-26.5 38.834 -26.5 63.501c0 25.333 8.83301 46.833 26.5 64.5s39.167 26.5 64.5 26.5c24.667 0 45.834 -8.83301 63.501 -26.5z" />
    <glyph glyph-name="Yacute" unicode="&#xdd;" horiz-adv-x="1248" 
d="M517 0h105v450l516 984h-114l-455 -874l-454 874h-115l517 -984v-450zM769 1705h-120l-154 -256h113z" />
    <glyph glyph-name="Thorn" unicode="&#xde;" horiz-adv-x="1105" 
d="M454 1119c76 0 150.333 -18 223 -54c139.333 -69.333 209 -189.333 209 -360c0 -171.333 -70 -291.333 -210 -360c-72 -36 -146 -54.333 -222 -55h-348v829h348zM100 1435l-100 0.000976562v-1433h1v-2h105v187h348c90 0 180.667 22 272 66
c179.333 87.333 269 238 269 452c0 213.333 -89.667 363.666 -269 450.999c-91.333 44.667 -182 67 -272 67h-354v212z" />
    <glyph glyph-name="germandbls" unicode="&#xdf;" horiz-adv-x="1105" 
d="M71 1250c-46 -67.333 -69.6689 -134.33 -71.002 -200.997v-1051h103v1050c2 52 21.667 102.667 59 152c72 96 193.333 144 364 144c30.667 0.666992 66.334 -3.33301 107.001 -12c78.667 -17.333 140 -47.666 184 -90.999c50 -50 75 -116.333 75 -199
c0 -34 -17.667 -65.667 -53 -95c-25.333 -20.667 -70.666 -47.667 -135.999 -81c-57.333 -28.667 -96.333 -51.334 -117 -68.001c-34 -28 -51 -59.667 -51 -95c0 -32.667 16.333 -61 49 -85c20 -14.667 57.333 -33.334 112 -56.001
c65.333 -27.333 110.666 -50.333 135.999 -69c36 -26 54 -56 54 -90c0 -64.667 -20 -126.334 -60 -185.001c-55.333 -83.333 -137 -125 -245 -125c-86.667 0 -155.334 13.333 -206.001 40c-67.333 35.333 -101 92.333 -101 171h-104c0 -100 36 -177.333 108 -232
c71.333 -54.667 172.333 -82 303 -82c136.667 0 243.334 52 320.001 156c58.667 80 88 165.667 88 257c0 66 -29 121.667 -87 167c-33.333 26 -95 56.333 -185 91s-88.167 71.667 5.5 111s156.5 73 188.5 101c56 49.333 84 105.666 84 168.999c0 112 -35.333 203 -106 273
c-92 90.667 -213.333 135 -364 133c-213.333 0 -364.666 -66 -453.999 -198z" />
    <glyph glyph-name="agrave" unicode="&#xe0;" horiz-adv-x="1615" 
d="M737 87c174.667 0 324 61.667 448 185c123.333 124 185 273.333 185 448s-61.667 324 -185 448c-124 123.333 -273.333 185 -448 185s-324 -61.667 -448 -185c-123.333 -124 -185 -273.333 -185 -448s61.667 -324 185 -448c124 -123.333 273.333 -185 448 -185zM1375 348
c-31.333 -52.667 -70.333 -102.333 -117 -149c-144 -144 -317.667 -216 -521 -216s-377 72 -521 216s-216 317.667 -216 521s72 377 216 521s317.667 216 521 216s377 -72 521 -216s216 -317.667 216 -521v-718h-99v346zM760 1525h113l-241 409h-120z" />
    <glyph glyph-name="aacute" unicode="&#xe1;" horiz-adv-x="1615" 
d="M737 87c174.667 0 324 61.667 448 185c123.333 124 185 273.333 185 448s-61.667 324 -185 448c-124 123.333 -273.333 185 -448 185s-324 -61.667 -448 -185c-123.333 -124 -185 -273.333 -185 -448s61.667 -324 185 -448c124 -123.333 273.333 -185 448 -185zM1375 348
c-31.333 -52.667 -70.333 -102.333 -117 -149c-144 -144 -317.667 -216 -521 -216s-377 72 -521 216s-216 317.667 -216 521s72 377 216 521s317.667 216 521 216s377 -72 521 -216s216 -317.667 216 -521v-718h-99v346zM993 1934h-120l-241 -409h113z" />
    <glyph glyph-name="acircumflex" unicode="&#xe2;" horiz-adv-x="1615" 
d="M737 87c174.667 0 324 61.667 448 185c123.333 124 185 273.333 185 448s-61.667 324 -185 448c-124 123.333 -273.333 185 -448 185s-324 -61.667 -448 -185c-123.333 -124 -185 -273.333 -185 -448s61.667 -324 185 -448c124 -123.333 273.333 -185 448 -185zM1375 348
c-31.333 -52.667 -70.333 -102.333 -117 -149c-144 -144 -317.667 -216 -521 -216s-377 72 -521 216s-216 317.667 -216 521s72 377 216 521s317.667 216 521 216s377 -72 521 -216s216 -317.667 216 -521v-718h-99v346zM596 1500l157 249l156 -249h-101l-54 97l-57 -97
h-101z" />
    <glyph glyph-name="atilde" unicode="&#xe3;" horiz-adv-x="1615" 
d="M737 87c174.667 0 324 61.667 448 185c123.333 124 185 273.333 185 448s-61.667 324 -185 448c-124 123.333 -273.333 185 -448 185s-324 -61.667 -448 -185c-123.333 -124 -185 -273.333 -185 -448s61.667 -324 185 -448c124 -123.333 273.333 -185 448 -185zM1375 348
c-31.333 -52.667 -70.333 -102.333 -117 -149c-144 -144 -317.667 -216 -521 -216s-377 72 -521 216s-216 317.667 -216 521s72 377 216 521s317.667 216 521 216s377 -72 521 -216s216 -317.667 216 -521v-718h-99v346zM428 1559c46.667 86 110.332 129 190.999 129
c62.667 0 117.667 -25.667 165 -77c31.333 -34 66.333 -51 105 -51c36 4 63 18 81 42h107c-46 -86 -109.333 -129 -190 -129c-63.333 0 -118.666 26 -165.999 78c-32 33.333 -66.667 50 -104 50c-42 -0.666992 -66.333 -14.667 -73 -42h-116z" />
    <glyph glyph-name="adieresis" unicode="&#xe4;" horiz-adv-x="1615" 
d="M737 87c174.667 0 324 61.667 448 185c123.333 124 185 273.333 185 448s-61.667 324 -185 448c-124 123.333 -273.333 185 -448 185s-324 -61.667 -448 -185c-123.333 -124 -185 -273.333 -185 -448s61.667 -324 185 -448c124 -123.333 273.333 -185 448 -185zM1375 348
c-31.333 -52.667 -70.333 -102.333 -117 -149c-144 -144 -317.667 -216 -521 -216s-377 72 -521 216s-216 317.667 -216 521s72 377 216 521s317.667 216 521 216s377 -72 521 -216s216 -317.667 216 -521v-718h-99v346zM688.5 1637.5
c17.667 -17.667 26.5 -39.167 26.5 -64.5c0 -24.667 -8.83301 -45.834 -26.5 -63.501s-38.834 -26.5 -63.501 -26.5c-25.333 0 -46.833 8.83301 -64.5 26.5s-26.5 38.834 -26.5 63.501c0 25.333 8.83301 46.833 26.5 64.5s39.167 26.5 64.5 26.5
c24.667 0 45.834 -8.83301 63.501 -26.5zM945.5 1637.5c17.667 -17.667 26.5 -39.167 26.5 -64.5c0 -24.667 -8.83301 -45.834 -26.5 -63.501s-38.834 -26.5 -63.501 -26.5c-25.333 0 -46.833 8.83301 -64.5 26.5s-26.5 38.834 -26.5 63.501
c0 25.333 8.83301 46.833 26.5 64.5s39.167 26.5 64.5 26.5c24.667 0 45.834 -8.83301 63.501 -26.5z" />
    <glyph glyph-name="aring" unicode="&#xe5;" horiz-adv-x="1615" 
d="M737 87c174.667 0 324 61.667 448 185c123.333 124 185 273.333 185 448s-61.667 324 -185 448c-124 123.333 -273.333 185 -448 185s-324 -61.667 -448 -185c-123.333 -124 -185 -273.333 -185 -448s61.667 -324 185 -448c124 -123.333 273.333 -185 448 -185zM1375 348
c-31.333 -52.667 -70.333 -102.333 -117 -149c-144 -144 -317.667 -216 -521 -216s-377 72 -521 216s-216 317.667 -216 521s72 377 216 521s317.667 216 521 216s377 -72 521 -216s216 -317.667 216 -521v-718h-99v346zM832.5 1687.5
c22.333 -22.333 33.5 -49.166 33.5 -80.499s-11.167 -58 -33.5 -80s-49.166 -33 -80.499 -33s-58 11 -80 33s-33 48.667 -33 80s11 58.166 33 80.499s48.667 33.5 80 33.5s58.166 -11.167 80.499 -33.5zM752 1649c-10.667 0 -19.834 -3.83301 -27.501 -11.5
s-11.5 -16.834 -11.5 -27.501c0 -11.333 3.83301 -20.833 11.5 -28.5s16.834 -11.5 27.501 -11.5c11.333 0 20.833 3.83301 28.5 11.5s11.5 17.167 11.5 28.5c0 10.667 -3.83301 19.834 -11.5 27.501s-17.167 11.5 -28.5 11.5z" />
    <glyph glyph-name="ae" unicode="&#xe6;" horiz-adv-x="2928" 
d="M1547 1004c29.333 56.667 68.333 109.333 117 158c122 121.333 269 182 441 182c138.667 0 263.334 -41.333 374 -124c78.667 -60 139 -132 181 -216h-1113zM298 275.999c-122.667 122.667 -184 270.667 -184 444s61.333 321.333 184 444s270.667 184 444 184
s321.333 -61.333 444 -184s184 -270.667 184 -444s-61.333 -321.333 -184 -444s-270.667 -184 -444 -184s-321.333 61.333 -444 184zM1378 -0.000976562l103 -0.00195312v328c28.667 -44.667 63 -87 103 -127c144 -143.333 317.667 -215 521 -215
c167.333 0 316.666 51 448 153c130 100.667 217 229.334 261 386.001h-118c-42 -125.333 -116.333 -227.333 -223 -306c-109.333 -80 -232 -120 -368 -120c-172 0 -319 60.667 -441 182c-112 112 -172.333 245.667 -181 401c0.666992 12.667 1 25.334 1 38.001
c0 13.333 -0.333008 26.666 -1 39.999c2.66699 50.667 11 99 25 145h1192v-1h118c-41.333 160.667 -127.333 292.334 -258 395.001c-133.333 105.333 -285 158 -455 158c-203.333 0 -377 -71.667 -521 -215c-69.333 -69.333 -122 -145.666 -158 -228.999
c-36 84 -89 161.333 -159 232c-145.333 144.667 -320.333 217 -525 217s-379.667 -72.333 -525 -217c-144.667 -145.333 -217 -320.333 -217 -525s72.333 -379.667 217 -525c145.333 -144.667 320.333 -217 525 -217s379.667 72.333 525 217
c43.333 43.333 80.333 89.666 111 138.999v-334z" />
    <glyph glyph-name="ccedilla" unicode="&#xe7;" horiz-adv-x="1545" 
d="M712 -152h6.00098c39.333 0 73.166 -7.83301 101.499 -23.5s42.5 -34.5 42.5 -56.5s-14.167 -40.833 -42.5 -56.5s-62.166 -23.5 -101.499 -23.5h-6v-104c15.333 -2 30 -3 44 -3c68 0 126 18 174 54s72 79.333 72 130c0 42.667 -17.333 80.667 -52 114
c-34.667 32.667 -78.667 54 -132 64v52c130 15.333 248.333 64.333 355 147c128.667 99.333 214.667 226.666 258 381.999h-117c-41.333 -124 -115 -225 -221 -303c-108 -79.333 -229.333 -119 -364 -119c-170.667 0 -316.334 60 -437.001 180
c-120 120.667 -180 266.334 -180 437.001c0 170 60 315.333 180 436c120.667 120 266.334 180 437.001 180c137.333 0 260.666 -41 369.999 -123c107.333 -81.333 180.333 -185.666 219 -312.999h117c-40.667 159.333 -126 290 -256 392c-132 104 -282 156 -450 156
c-201.333 0 -373.333 -71 -516 -213c-142 -142.667 -213 -314.334 -213 -515.001c0 -201.333 71 -373.333 213 -516c138.667 -138 305 -209 499 -213v-142z" />
    <glyph glyph-name="egrave" unicode="&#xe8;" horiz-adv-x="1581" 
d="M1427 935c-35.333 135.333 -117.999 254.001 -247.999 356.001c-132 104 -282 156 -450 156c-201.333 0 -373.333 -71 -516 -213c-142 -142.667 -213 -314.334 -213 -515.001c0 -201.333 71 -373.333 213 -516c142.667 -142 314.667 -213 516 -213
c165.333 0 313.333 50.667 444 152c128.667 99.333 214.667 226.666 258 381.999h-117c-41.333 -124 -115 -225 -221 -303c-108 -79.333 -229.333 -121 -364 -125c-170.667 4 -316.334 66 -437.001 186c-120 120.667 -182.333 266.334 -187 437.001
c0 66 15.333 137.667 46 215zM196.001 1032c27.333 52 64.333 100.001 111 144.001c116.667 110.667 257.334 166 422.001 166c132 0 251 -37.667 357 -113c75.333 -54.667 133.666 -120.334 174.999 -197.001h-1065zM723.001 1525h113l-241 409h-120z" />
    <glyph glyph-name="eacute" unicode="&#xe9;" horiz-adv-x="1581" 
d="M1427 935c-35.333 135.333 -117.999 254.001 -247.999 356.001c-132 104 -282 156 -450 156c-201.333 0 -373.333 -71 -516 -213c-142 -142.667 -213 -314.334 -213 -515.001c0 -201.333 71 -373.333 213 -516c142.667 -142 314.667 -213 516 -213
c165.333 0 313.333 50.667 444 152c128.667 99.333 214.667 226.666 258 381.999h-117c-41.333 -124 -115 -225 -221 -303c-108 -79.333 -229.333 -121 -364 -125c-170.667 4 -316.334 66 -437.001 186c-120 120.667 -182.333 266.334 -187 437.001
c0 66 15.333 137.667 46 215zM196.001 1032c27.333 52 64.333 100.001 111 144.001c116.667 110.667 257.334 166 422.001 166c132 0 251 -37.667 357 -113c75.333 -54.667 133.666 -120.334 174.999 -197.001h-1065zM956.001 1934h-120l-241 -409h113z" />
    <glyph glyph-name="ecircumflex" unicode="&#xea;" horiz-adv-x="1581" 
d="M1427 935c-35.333 135.333 -117.999 254.001 -247.999 356.001c-132 104 -282 156 -450 156c-201.333 0 -373.333 -71 -516 -213c-142 -142.667 -213 -314.334 -213 -515.001c0 -201.333 71 -373.333 213 -516c142.667 -142 314.667 -213 516 -213
c165.333 0 313.333 50.667 444 152c128.667 99.333 214.667 226.666 258 381.999h-117c-41.333 -124 -115 -225 -221 -303c-108 -79.333 -229.333 -121 -364 -125c-170.667 4 -316.334 66 -437.001 186c-120 120.667 -182.333 266.334 -187 437.001
c0 66 15.333 137.667 46 215zM196.001 1032c27.333 52 64.333 100.001 111 144.001c116.667 110.667 257.334 166 422.001 166c132 0 251 -37.667 357 -113c75.333 -54.667 133.666 -120.334 174.999 -197.001h-1065zM559.001 1500l157 249l156 -249h-101l-54 97l-57 -97
h-101z" />
    <glyph glyph-name="edieresis" unicode="&#xeb;" horiz-adv-x="1581" 
d="M1427 935c-35.333 135.333 -117.999 254.001 -247.999 356.001c-132 104 -282 156 -450 156c-201.333 0 -373.333 -71 -516 -213c-142 -142.667 -213 -314.334 -213 -515.001c0 -201.333 71 -373.333 213 -516c142.667 -142 314.667 -213 516 -213
c165.333 0 313.333 50.667 444 152c128.667 99.333 214.667 226.666 258 381.999h-117c-41.333 -124 -115 -225 -221 -303c-108 -79.333 -229.333 -121 -364 -125c-170.667 4 -316.334 66 -437.001 186c-120 120.667 -182.333 266.334 -187 437.001
c0 66 15.333 137.667 46 215zM196.001 1032c27.333 52 64.333 100.001 111 144.001c116.667 110.667 257.334 166 422.001 166c132 0 251 -37.667 357 -113c75.333 -54.667 133.666 -120.334 174.999 -197.001h-1065zM651.501 1637.5
c17.667 -17.667 26.5 -39.167 26.5 -64.5c0 -24.667 -8.83301 -45.834 -26.5 -63.501s-38.834 -26.5 -63.501 -26.5c-25.333 0 -46.833 8.83301 -64.5 26.5s-26.5 38.834 -26.5 63.501c0 25.333 8.83301 46.833 26.5 64.5s39.167 26.5 64.5 26.5
c24.667 0 45.834 -8.83301 63.501 -26.5zM908.501 1637.5c17.667 -17.667 26.5 -39.167 26.5 -64.5c0 -24.667 -8.83301 -45.834 -26.5 -63.501s-38.834 -26.5 -63.501 -26.5c-25.333 0 -46.833 8.83301 -64.5 26.5s-26.5 38.834 -26.5 63.501
c0 25.333 8.83301 46.833 26.5 64.5s39.167 26.5 64.5 26.5c24.667 0 45.834 -8.83301 63.501 -26.5z" />
    <glyph glyph-name="igrave" unicode="&#xec;" horiz-adv-x="384" 
d="M268 1434h-105v-1434h105v1434zM161 1457h113l-154 256h-120z" />
    <glyph glyph-name="iacute" unicode="&#xed;" horiz-adv-x="215" 
d="M105 1434h-105v-1434h105v1434zM363 1934h-120l-241 -409h113z" />
    <glyph glyph-name="icircumflex" unicode="&#xee;" horiz-adv-x="340" 
d="M209 1434h-105v-1434h105v1434zM0 1520l157 249l156 -249h-101l-54 97l-57 -97h-101z" />
    <glyph glyph-name="idieresis" unicode="&#xef;" horiz-adv-x="395" 
d="M267 1434h-105v-1434h105v1434zM154.5 1677.5c17.667 -17.667 26.5 -39.167 26.5 -64.5c0 -24.667 -8.83301 -45.834 -26.5 -63.501s-38.834 -26.5 -63.501 -26.5c-25.333 0 -46.833 8.83301 -64.5 26.5s-26.5 38.834 -26.5 63.501c0 25.333 8.83301 46.833 26.5 64.5
s39.167 26.5 64.5 26.5c24.667 0 45.834 -8.83301 63.501 -26.5zM411.5 1677.5c17.667 -17.667 26.5 -39.167 26.5 -64.5c0 -24.667 -8.83301 -45.834 -26.5 -63.501s-38.834 -26.5 -63.501 -26.5c-25.333 0 -46.833 8.83301 -64.5 26.5s-26.5 38.834 -26.5 63.501
c0 25.333 8.83301 46.833 26.5 64.5s39.167 26.5 64.5 26.5c24.667 0 45.834 -8.83301 63.501 -26.5z" />
    <glyph glyph-name="eth" unicode="&#xf0;" horiz-adv-x="1603" 
d="M1076 199c-142.667 -94 -297.667 -123.999 -465 -89.999c-167.333 34.667 -298 123 -392 265c-94 142.667 -124 297.667 -90 465s122.333 298 265 392c142 94 296.667 124 464 90s298 -122.333 392 -265s124 -297.667 90 -465c-34 -166.667 -122 -297.334 -264 -392.001z
M532 1666l25.999 102.999l-92 22l-25 -98l-104 26l-24 -109c34 -7.33301 68 -15.666 102 -24.999l-21 -90l91 -22l21 85c93.333 -30 183 -66.667 269 -110c-180 10 -342 -40 -486 -150c-145.333 -111.333 -236.333 -256.666 -273 -435.999
c-40.667 -198.667 -5 -382.667 107 -552c111.333 -168.667 266.333 -273.334 465 -314.001s382.334 -5 551.001 107c169.333 112 274.333 267 315 465c26 128.667 18.333 254.667 -23 378c-40 120 -106.333 222.667 -199 308c-162 178 -395.333 315.333 -700 412z" />
    <glyph glyph-name="ntilde" unicode="&#xf1;" horiz-adv-x="1443" 
d="M0 0l98.001 0.000976562v718c2 176 58.333 326.333 169 451c110.667 124 243.667 186 399 186c156 0 289.333 -62.333 400 -187c111.333 -124.667 167.666 -275.334 168.999 -452.001h1v-716h97v716c-2 207.333 -68 384 -198 530c-130 146.667 -286.333 220 -469 220
c-182 0 -338 -73 -468 -219c-129.333 -146 -195.333 -322.333 -198 -529v0v-718zM335.001 1619c46.667 86 110.332 129 190.999 129c62.667 0 117.667 -25.667 165 -77c31.333 -34 66.333 -51 105 -51c36 4 63 18 81 42h107c-46 -86 -109.333 -129 -190 -129
c-63.333 0 -118.666 26 -165.999 78c-32 33.333 -66.667 50 -104 50c-42 -0.666992 -66.333 -14.667 -73 -42h-116z" />
    <glyph glyph-name="ograve" unicode="&#xf2;" horiz-adv-x="1584" 
d="M737 87c174.667 0 324 61.667 448 185c123.333 124 185 273.333 185 448s-61.667 324 -185 448c-124 123.333 -273.333 185 -448 185s-324 -61.667 -448 -185c-123.333 -124 -185 -273.333 -185 -448s61.667 -324 185 -448c124 -123.333 273.333 -185 448 -185zM737 1457
c203.333 0 377 -72 521 -216s216 -317.667 216 -521s-72 -377 -216 -521s-317.667 -216 -521 -216s-377 72 -521 216s-216 317.667 -216 521s72 377 216 521s317.667 216 521 216zM744 1525h113l-241 409h-120z" />
    <glyph glyph-name="oacute" unicode="&#xf3;" horiz-adv-x="1584" 
d="M737 87c174.667 0 324 61.667 448 185c123.333 124 185 273.333 185 448s-61.667 324 -185 448c-124 123.333 -273.333 185 -448 185s-324 -61.667 -448 -185c-123.333 -124 -185 -273.333 -185 -448s61.667 -324 185 -448c124 -123.333 273.333 -185 448 -185zM737 1457
c203.333 0 377 -72 521 -216s216 -317.667 216 -521s-72 -377 -216 -521s-317.667 -216 -521 -216s-377 72 -521 216s-216 317.667 -216 521s72 377 216 521s317.667 216 521 216zM978 1934h-120l-241 -409h113z" />
    <glyph glyph-name="ocircumflex" unicode="&#xf4;" horiz-adv-x="1584" 
d="M737 87c174.667 0 324 61.667 448 185c123.333 124 185 273.333 185 448s-61.667 324 -185 448c-124 123.333 -273.333 185 -448 185s-324 -61.667 -448 -185c-123.333 -124 -185 -273.333 -185 -448s61.667 -324 185 -448c124 -123.333 273.333 -185 448 -185zM737 1457
c203.333 0 377 -72 521 -216s216 -317.667 216 -521s-72 -377 -216 -521s-317.667 -216 -521 -216s-377 72 -521 216s-216 317.667 -216 521s72 377 216 521s317.667 216 521 216zM581 1520l157 249l156 -249h-101l-54 97l-57 -97h-101z" />
    <glyph glyph-name="otilde" unicode="&#xf5;" horiz-adv-x="1584" 
d="M737 87c174.667 0 324 61.667 448 185c123.333 124 185 273.333 185 448s-61.667 324 -185 448c-124 123.333 -273.333 185 -448 185s-324 -61.667 -448 -185c-123.333 -124 -185 -273.333 -185 -448s61.667 -324 185 -448c124 -123.333 273.333 -185 448 -185zM737 1457
c203.333 0 377 -72 521 -216s216 -317.667 216 -521s-72 -377 -216 -521s-317.667 -216 -521 -216s-377 72 -521 216s-216 317.667 -216 521s72 377 216 521s317.667 216 521 216zM413 1589c46.667 86 110.332 129 190.999 129c62.667 0 117.667 -25.667 165 -77
c31.333 -34 66.333 -51 105 -51c36 4 63 18 81 42h107c-46 -86 -109.333 -129 -190 -129c-63.333 0 -118.666 26 -165.999 78c-32 33.333 -66.667 50 -104 50c-42 -0.666992 -66.333 -14.667 -73 -42h-116z" />
    <glyph glyph-name="odieresis" unicode="&#xf6;" horiz-adv-x="1584" 
d="M737 87c174.667 0 324 61.667 448 185c123.333 124 185 273.333 185 448s-61.667 324 -185 448c-124 123.333 -273.333 185 -448 185s-324 -61.667 -448 -185c-123.333 -124 -185 -273.333 -185 -448s61.667 -324 185 -448c124 -123.333 273.333 -185 448 -185zM737 1457
c203.333 0 377 -72 521 -216s216 -317.667 216 -521s-72 -377 -216 -521s-317.667 -216 -521 -216s-377 72 -521 216s-216 317.667 -216 521s72 377 216 521s317.667 216 521 216zM672.5 1657.5c17.667 -17.667 26.5 -39.167 26.5 -64.5
c0 -24.667 -8.83301 -45.834 -26.5 -63.501s-38.834 -26.5 -63.501 -26.5c-25.333 0 -46.833 8.83301 -64.5 26.5s-26.5 38.834 -26.5 63.501c0 25.333 8.83301 46.833 26.5 64.5s39.167 26.5 64.5 26.5c24.667 0 45.834 -8.83301 63.501 -26.5zM929.5 1657.5
c17.667 -17.667 26.5 -39.167 26.5 -64.5c0 -24.667 -8.83301 -45.834 -26.5 -63.501s-38.834 -26.5 -63.501 -26.5c-25.333 0 -46.833 8.83301 -64.5 26.5s-26.5 38.834 -26.5 63.501c0 25.333 8.83301 46.833 26.5 64.5s39.167 26.5 64.5 26.5
c24.667 0 45.834 -8.83301 63.501 -26.5z" />
    <glyph glyph-name="divide" unicode="&#xf7;" horiz-adv-x="885" 
d="M775 660h-775v-103h775v103zM459.5 868.5c17.667 -17.667 26.5 -39.167 26.5 -64.5c0 -24.667 -8.83301 -45.834 -26.5 -63.501s-38.834 -26.5 -63.501 -26.5c-25.333 0 -46.833 8.83301 -64.5 26.5s-26.5 38.834 -26.5 63.501c0 25.333 8.83301 46.833 26.5 64.5
s39.167 26.5 64.5 26.5c24.667 0 45.834 -8.83301 63.501 -26.5zM462.5 472.5c17.667 -17.667 26.5 -39.167 26.5 -64.5c0 -24.667 -8.83301 -45.834 -26.5 -63.501s-38.834 -26.5 -63.501 -26.5c-25.333 0 -46.833 8.83301 -64.5 26.5s-26.5 38.834 -26.5 63.501
c0 25.333 8.83301 46.833 26.5 64.5s39.167 26.5 64.5 26.5c24.667 0 45.834 -8.83301 63.501 -26.5z" />
    <glyph glyph-name="oslash" unicode="&#xf8;" horiz-adv-x="1594" 
d="M217 1245c-144.667 -145.333 -217 -320.333 -217 -525s72.333 -379.667 217 -525c145.333 -144.667 320.333 -217 525 -217s379.667 72.333 525 217c144.667 145.333 217 320.333 217 525s-72.333 379.667 -217 525c-145.333 144.667 -320.333 217 -525 217
s-379.667 -72.333 -525 -217zM1222 1554h-122l-864 -1661h122zM298 276c-122.667 122.667 -184 270.667 -184 444s61.333 321.333 184 444s270.667 184 444 184s321.333 -61.333 444 -184s184 -270.667 184 -444s-61.333 -321.333 -184 -444s-270.667 -184 -444 -184
s-321.333 61.333 -444 184z" />
    <glyph glyph-name="ugrave" unicode="&#xf9;" horiz-adv-x="1412" 
d="M1302 1432l-95.002 0.000976562v-701v0c-2.66699 -172.667 -58 -319.667 -166 -441s-238 -182 -390 -182s-282.333 61 -391 183c-108 122 -163 269.333 -165 442v0v699h-95v-699c2 -202.667 66.333 -375.334 193 -518.001c126.667 -143.333 279.334 -215 458.001 -215
c178 -0 330.333 71.333 457 214s191.334 315 194.001 517v0v701zM625.998 1449h113l-154 256h-120z" />
    <glyph glyph-name="uacute" unicode="&#xfa;" horiz-adv-x="1412" 
d="M1302 1432l-95.002 0.000976562v-701v0c-2.66699 -172.667 -58 -319.667 -166 -441s-238 -182 -390 -182s-282.333 61 -391 183c-108 122 -163 269.333 -165 442v0v699h-95v-699c2 -202.667 66.333 -375.334 193 -518.001c126.667 -143.333 279.334 -215 458.001 -215
c178 -0 330.333 71.333 457 214s191.334 315 194.001 517v0v701zM818.998 1705h-120l-154 -256h113z" />
    <glyph glyph-name="ucircumflex" unicode="&#xfb;" horiz-adv-x="1412" 
d="M1308 731c-2.66699 -202.667 -67.667 -375.666 -195 -518.999s-280.333 -215 -459 -215c-179.333 0 -332.666 72 -459.999 216c-127.333 143.333 -192 316.666 -194 519.999v702h101v-702c2 -172 56.667 -318.667 164 -440c108 -121.333 237.667 -182 389 -182
s280.666 60.333 387.999 181s162.333 267 165 439v0v704h101v-704zM498 1500l157 249l156 -249h-101l-54 97l-57 -97h-101z" />
    <glyph glyph-name="udieresis" unicode="&#xfc;" horiz-adv-x="1412" 
d="M1302 1432l-95.002 0.000976562v-701v0c-2.66699 -172.667 -58 -319.667 -166 -441s-238 -182 -390 -182s-282.333 61 -391 183c-108 122 -163 269.333 -165 442v0v699h-95v-699c2 -202.667 66.333 -375.334 193 -518.001c126.667 -143.333 279.334 -215 458.001 -215
c178 -0 330.333 71.333 457 214s191.334 315 194.001 517v0v701zM602.498 1637.5c17.667 -17.667 26.5 -39.167 26.5 -64.5c0 -24.667 -8.83301 -45.834 -26.5 -63.501s-38.834 -26.5 -63.501 -26.5c-25.333 0 -46.833 8.83301 -64.5 26.5s-26.5 38.834 -26.5 63.501
c0 25.333 8.83301 46.833 26.5 64.5s39.167 26.5 64.5 26.5c24.667 0 45.834 -8.83301 63.501 -26.5zM859.498 1637.5c17.667 -17.667 26.5 -39.167 26.5 -64.5c0 -24.667 -8.83301 -45.834 -26.5 -63.501s-38.834 -26.5 -63.501 -26.5
c-25.333 0 -46.833 8.83301 -64.5 26.5s-26.5 38.834 -26.5 63.501c0 25.333 8.83301 46.833 26.5 64.5s39.167 26.5 64.5 26.5c24.667 0 45.834 -8.83301 63.501 -26.5z" />
    <glyph glyph-name="yacute" unicode="&#xfd;" horiz-adv-x="1248" 
d="M517 0h105v450l516 984h-114l-455 -874l-454 874h-115l517 -984v-450zM769 1705h-120l-154 -256h113z" />
    <glyph glyph-name="thorn" unicode="&#xfe;" horiz-adv-x="1104" 
d="M0 1433v-1433h105v397h348c90 0 180.667 22 272 66c179.333 87.333 269 238 269 452c0 213.333 -89.667 363.666 -269 450.999c-91.333 44.667 -182 67 -272 67h-453zM453 1329c76 0 150.333 -18 223 -54c139.333 -69.333 209 -189.333 209 -360
c0 -171.333 -70 -291.333 -210 -360c-72 -36 -146 -54.333 -222 -55h-348v829h348z" />
    <glyph glyph-name="ydieresis" unicode="&#xff;" horiz-adv-x="1437" 
d="M1215 1436v-753.002c-3.33301 -163.333 -58.666 -304.666 -165.999 -423.999c-113.333 -113.333 -241.666 -170 -384.999 -170c-151.333 0 -284 63.667 -398 191c-108 148 -160.667 296.333 -158 445l1 710h-109v-712c2 -205.333 67.667 -381 197 -527s285 -219 467 -219
c111.333 0 215.666 29.667 312.999 89c97.333 60 176.666 143 237.999 249v-59l2 -180c-2 -171.333 -57 -317.666 -165 -438.999c-109.333 -122 -238.666 -183 -387.999 -183c-119.333 0 -227.333 39.667 -324 119c-96.667 80 -164 184.333 -202 313l-1 5h-114l2 -8
c39.333 -162.667 118.666 -295 237.999 -397c119.333 -102.667 253 -154 401 -154c180.667 0 335.667 72.667 465 218c129.333 146 195.333 321.333 198 526v180v1179l-8 1h-104zM602.5 1637.5c17.667 -17.667 26.5 -39.167 26.5 -64.5
c0 -24.667 -8.83301 -45.834 -26.5 -63.501s-38.834 -26.5 -63.501 -26.5c-25.333 0 -46.833 8.83301 -64.5 26.5s-26.5 38.834 -26.5 63.501c0 25.333 8.83301 46.833 26.5 64.5s39.167 26.5 64.5 26.5c24.667 0 45.834 -8.83301 63.501 -26.5zM859.5 1637.5
c17.667 -17.667 26.5 -39.167 26.5 -64.5c0 -24.667 -8.83301 -45.834 -26.5 -63.501s-38.834 -26.5 -63.501 -26.5c-25.333 0 -46.833 8.83301 -64.5 26.5s-26.5 38.834 -26.5 63.501c0 25.333 8.83301 46.833 26.5 64.5s39.167 26.5 64.5 26.5
c24.667 0 45.834 -8.83301 63.501 -26.5z" />
    <glyph glyph-name="dotlessi" unicode="&#x131;" horiz-adv-x="215" 
d="M105 1434h-105v-1434h105v1434z" />
    <glyph glyph-name="OE" unicode="&#x152;" horiz-adv-x="1897" 
d="M742 1462c-204.667 0 -379.667 -72.333 -525 -217c-144.667 -145.333 -217 -320.333 -217 -525s72.333 -379.667 217 -525c144.667 -144 318.334 -216.333 521.001 -217h1049v114h-647c44.667 28.667 87 63 127 103c67.333 68 119 142.333 155 223h365v114h-325
c14.667 59.333 22 122 22 188c0 204.667 -72.333 379.667 -217 525c-40.667 40 -83.334 74.667 -128.001 104h648v114h-1036v-1h-9zM298 276c-122.667 122.667 -184 270.667 -184 444s61.333 321.333 184 444s270.667 184 444 184s321.333 -61.333 444 -184
s184 -270.667 184 -444s-61.333 -321.333 -184 -444s-270.667 -184 -444 -184s-321.333 61.333 -444 184z" />
    <glyph glyph-name="oe" unicode="&#x153;" horiz-adv-x="2928" 
d="M1547 1004c29.333 56.667 68.333 109.333 117 158c122 121.333 269 182 441 182c138.667 0 263.334 -41.333 374 -124c78.667 -60 139 -132 181 -216h-1113zM298 275.999c-122.667 122.667 -184 270.667 -184 444s61.333 321.333 184 444s270.667 184 444 184
s321.333 -61.333 444 -184s184 -270.667 184 -444s-61.333 -321.333 -184 -444s-270.667 -184 -444 -184s-321.333 61.333 -444 184zM1267 1245c-145.333 144.667 -320.333 216.997 -525 216.997s-379.667 -72.333 -525 -217c-144.667 -145.333 -217 -320.333 -217 -525
s72.333 -379.667 217 -525c145.333 -144.667 320.333 -217 525 -217s379.667 72.333 525 217c70.667 70.667 124 148.667 160 234c36 -82.667 88.333 -158.667 157 -228c144 -143.333 317.667 -215 521 -215c167.333 0 316.666 51 448 153
c130 100.667 217 229.334 261 386.001h-118c-42 -125.333 -116.333 -227.333 -223 -306c-109.333 -80 -232 -120 -368 -120c-172 0 -319 60.667 -441 182c-112 112 -172.333 245.667 -181 401c0.666992 12.667 1 25.334 1 38.001c0 13.333 -0.333008 26.666 -1 39.999
c2.66699 50.667 11 99 25 145h1192v-1h118c-41.333 160.667 -127.333 292.334 -258 395.001c-133.333 105.333 -285 158 -455 158c-203.333 0 -377 -71.667 -521 -215c-69.333 -69.333 -122 -145.666 -158 -228.999c-36 84 -89 161.333 -159 232z" />
    <glyph glyph-name="circumflex" unicode="&#x2c6;" horiz-adv-x="423" 
d="M0 1500l157 249l156 -249h-101l-54 97l-57 -97h-101z" />
    <glyph glyph-name="caron" unicode="&#x2c7;" horiz-adv-x="423" 
d="M313 1734l-156 -250l-157 250h102l54 -97l56 97h101z" />
    <glyph glyph-name="uni02C9" unicode="&#x2c9;" horiz-adv-x="684" 
d="M574 1603h-574v-103h574v103z" />
    <glyph glyph-name="breve" unicode="&#x2d8;" horiz-adv-x="409" 
d="M202 1663h96.999v-4c0 -41.333 -14.5 -76.5 -43.5 -105.5s-64.167 -43.5 -105.5 -43.5s-76.666 14.5 -105.999 43.5s-44 64.167 -44 105.5v4h97c0 -14.667 5.16699 -27 15.5 -37s22.833 -15 37.5 -15c14 0 26.167 5 36.5 15s15.5 22.333 15.5 37z" />
    <glyph glyph-name="dotaccent" unicode="&#x2d9;" horiz-adv-x="291" 
d="M154.5 1647.5c17.667 -17.667 26.5 -39.167 26.5 -64.5c0 -24.667 -8.83301 -45.834 -26.5 -63.501s-38.834 -26.5 -63.501 -26.5c-25.333 0 -46.833 8.83301 -64.5 26.5s-26.5 38.834 -26.5 63.501c0 25.333 8.83301 46.833 26.5 64.5s39.167 26.5 64.5 26.5
c24.667 0 45.834 -8.83301 63.501 -26.5z" />
    <glyph glyph-name="ring" unicode="&#x2da;" horiz-adv-x="337" 
d="M193.5 1687.5c22.333 -22.333 33.5 -49.166 33.5 -80.499s-11.167 -58 -33.5 -80s-49.166 -33 -80.499 -33s-58 11 -80 33s-33 48.667 -33 80s11 58.166 33 80.499s48.667 33.5 80 33.5s58.166 -11.167 80.499 -33.5zM113 1649c-10.667 0 -19.834 -3.83301 -27.501 -11.5
s-11.5 -16.834 -11.5 -27.501c0 -11.333 3.83301 -20.833 11.5 -28.5s16.834 -11.5 27.501 -11.5c11.333 0 20.833 3.83301 28.5 11.5s11.5 17.167 11.5 28.5c0 10.667 -3.83301 19.834 -11.5 27.501s-17.167 11.5 -28.5 11.5z" />
    <glyph glyph-name="ogonek" unicode="&#x2db;" horiz-adv-x="516" 
d="M120 -294l-0.000976562 -96.999c14.667 -2 28.334 -3 41.001 -3c64 0 118.333 17 163 51c45.333 33.333 68 74 68 122c0 40 -16.333 75.667 -49 107c-32.667 30.667 -74 50.667 -124 60v54h-99v-144h6c36.667 0 68.334 -7.33301 95.001 -22s40 -32.334 40 -53.001
c0 -20 -13.333 -37.5 -40 -52.5s-58.334 -22.5 -95.001 -22.5h-6z" />
    <glyph glyph-name="tilde" unicode="&#x2dc;" horiz-adv-x="759" 
d="M0 1559c46.667 86 110.332 129 190.999 129c62.667 0 117.667 -25.667 165 -77c31.333 -34 66.333 -51 105 -51c36 4 63 18 81 42h107c-46 -86 -109.333 -129 -190 -129c-63.333 0 -118.666 26 -165.999 78c-32 33.333 -66.667 50 -104 50
c-42 -0.666992 -66.333 -14.667 -73 -42h-116z" />
    <glyph glyph-name="hungarumlaut" unicode="&#x2dd;" horiz-adv-x="554" 
d="M444 1785h-120l-154 -256h113zM274 1785h-120l-154 -256h113z" />
    <glyph glyph-name="endash" unicode="&#x2013;" 
 />
    <glyph glyph-name="emdash" unicode="&#x2014;" 
 />
    <glyph glyph-name="quoteleft" unicode="&#x2018;" horiz-adv-x="384" 
d="M161 1180h113l-154 256h-120z" />
    <glyph glyph-name="quoteright" unicode="&#x2019;" horiz-adv-x="384" 
d="M274 1436h-120l-154 -256h113z" />
    <glyph glyph-name="quotesinglbase" unicode="&#x201a;" horiz-adv-x="384" 
d="M274 158h-120l-154 -256h113z" />
    <glyph glyph-name="quotedblleft" unicode="&#x201c;" horiz-adv-x="434" 
d="M109 1433h-109v-442h108zM324 1433h-109v-442h108z" />
    <glyph glyph-name="quotedblright" unicode="&#x201d;" horiz-adv-x="434" 
d="M109 1433h-109v-442h108zM324 1433h-109v-442h108z" />
    <glyph glyph-name="quotedblbase" unicode="&#x201e;" horiz-adv-x="434" 
d="M109 154h-109v-442h108zM324 154h-109v-442h108z" />
    <glyph glyph-name="dagger" unicode="&#x2020;" 
 />
    <glyph glyph-name="daggerdbl" unicode="&#x2021;" horiz-adv-x="2928" 
 />
    <glyph glyph-name="bullet" unicode="&#x2022;" horiz-adv-x="406" 
d="M252.5 862.5c29 -29 43.5 -63.833 43.5 -104.5s-14.5 -75.5 -43.5 -104.5s-63.833 -43.5 -104.5 -43.5s-75.5 14.5 -104.5 43.5s-43.5 63.833 -43.5 104.5s14.5 75.5 43.5 104.5s63.833 43.5 104.5 43.5s75.5 -14.5 104.5 -43.5z" />
    <glyph glyph-name="ellipsis" unicode="&#x2026;" 
 />
    <glyph glyph-name="guilsinglleft" unicode="&#x2039;" horiz-adv-x="792" 
d="M682 385l-682 353l682 354v-115l-259 -134c-122 -63.333 -189 -98.333 -201 -105l460 -237v-116z" />
    <glyph glyph-name="guilsinglright" unicode="&#x203a;" horiz-adv-x="792" 
d="M0 501l460 237c-12 6.66699 -79 41.667 -201 105l-259 134v115l682 -354l-682 -353v116z" />
    <glyph glyph-name="fraction" unicode="&#x2044;" horiz-adv-x="960" 
d="M850 1432h-105l-745 -1432h105z" />
    <glyph glyph-name="fraction" unicode="&#x2215;" horiz-adv-x="960" 
d="M850 1432h-105l-745 -1432h105z" />
    <glyph glyph-name="franc" unicode="&#x20a3;" horiz-adv-x="1379" 
d="M0 265v-103h178v-162h105v162h212v103h-212v142h986v105h-986v813h985v2h1v105h-1091v-1167h-178z" />
    <glyph glyph-name="lira" unicode="&#x20a4;" horiz-adv-x="1142" 
d="M360 469c13.333 41.333 5.33398 91.001 -23.999 149.001c-13.333 24.667 -34.666 59.334 -63.999 104.001c-41.333 63.333 -67 111.666 -77 144.999c-16 53.333 -12.333 111.333 11 174c36 97.333 84 172 144 224c60 51.333 128.667 76.666 206 75.999
c69.333 -0.666992 135.333 -22 198 -64c62.667 -41.333 104.334 -92.333 125.001 -153c30.667 -88 3.66699 -166.667 -81 -236h147c58 84.667 70.333 175.334 37 272.001c-28.667 82 -83.667 150.667 -165 206c-80.667 55.333 -167.334 83.333 -260.001 84
c-100 0.666992 -189.667 -31.333 -269 -96c-78.667 -64.667 -140 -156.667 -184 -276c-31.333 -84 -36 -164 -14 -240c13.333 -44.667 43.666 -103.334 90.999 -176.001c27.333 -41.333 46.666 -72.666 57.999 -93.999c15.333 -30.667 18.333 -59.334 9 -86.001
c-5.33301 -14 -31 -60.667 -77 -140c-60.667 -104 -101.667 -218 -123 -342h904v96h-765c44 113.333 69 175.333 75 186c61.333 112 94 174.333 98 187zM453.001 869.001h-453v-89h453v89zM453.001 659.001h-453v-89h453v89z" />
    <glyph glyph-name="peseta" unicode="&#x20a7;" 
 />
    <glyph glyph-name="Euro" unicode="&#x20ac;" horiz-adv-x="1843" 
d="M755 528l30.001 101.998h-369c-4 28.667 -6 58.334 -6 89.001c0 26.667 1.66699 53 5 79h340l30 102h-350c28.667 94.667 80.334 179.667 155.001 255c120.667 120 266.334 180 437.001 180c137.333 0 260.666 -41 369.999 -123
c107.333 -81.333 180.333 -185.666 219 -312.999h117c-40.667 159.333 -126 290 -256 392c-132 104 -282 156 -450 156c-201.333 0 -373.333 -71 -516 -213c-97.333 -98 -161.333 -209.333 -192 -334h-289l-30 -102h302c-2.66699 -26 -4 -52.333 -4 -79
c0 -30 1.66699 -59.667 5 -89h-273l-30 -102h322c31.333 -121.333 94.333 -229.666 189 -324.999c142.667 -142 314.667 -213 516 -213c165.333 0 313.333 50.667 444 152c128.667 99.333 214.667 226.666 258 381.999h-117c-41.333 -124 -115 -225 -221 -303
c-108 -79.333 -229.333 -119 -364 -119c-170.667 0 -316.334 60 -437.001 180c-72.667 72.667 -123.334 154.667 -152.001 246h317z" />
    <glyph glyph-name="afii61352" unicode="&#x2116;" 
 />
    <glyph glyph-name="trademark" unicode="&#x2122;" horiz-adv-x="1248" 
d="M482 640h-482v-47h217v-593h47v593h218v47zM848 94l-294 548v-642h49v455l242 -455v0v0l3 5v-1l241 455l-1 -459h50v641z" />
    <glyph glyph-name="partialdiff" unicode="&#x2202;" horiz-adv-x="1328" 
d="M532 1339h-218v-640h-97v640h-217v97h532v-97zM1218 1450v-741h-90l1 398l-218 -418l-228 416v-396h-89v742l314 -586z" />
    <glyph glyph-name="Delta" unicode="&#x2206;" horiz-adv-x="1615" 
d="M373 511l380 722l379 -722h-759zM1400 0h105l-700 1332l-52 100l-53 -99v-1l-700 -1332h105l213 406h869zM1157 1938h-120l-241 -409h113z" />
    <glyph glyph-name="product" unicode="&#x220f;" 
 />
    <glyph glyph-name="summation" unicode="&#x2211;" horiz-adv-x="1105" 
d="M454 1119c76 0 150.333 -18 223 -54c139.333 -69.333 209 -189.333 209 -360c0 -171.333 -70 -291.333 -210 -360c-72 -36 -146 -54.333 -222 -55h-348v829h348zM100 1435l-100 0.000976562v-1433h1v-2h105v187h348c90 0 180.667 22 272 66
c179.333 87.333 269 238 269 452c0 213.333 -89.667 363.666 -269 450.999c-91.333 44.667 -182 67 -272 67h-354v212z" />
    <glyph glyph-name="minus" unicode="&#x2212;" horiz-adv-x="885" 
d="M775 660h-775v-103h775v103z" />
    <glyph glyph-name="radical" unicode="&#x221a;" horiz-adv-x="1608" 
d="M1502 0h-131l-622 1178l-617 -1178h-137l681 1297v1l73 137l70 -133z" />
    <glyph glyph-name="infinity" unicode="&#x221e;" horiz-adv-x="2017" 
d="M233 384c-74 56 -111 123.667 -111 203c0 80 37 148.333 111 205c74.667 56 164.667 84 270 84s195 -28 269 -84c74.667 -56.667 112 -125 112 -205c0 -79.333 -37.333 -147 -112 -203c-74 -56.667 -163.667 -85 -269 -85s-195.333 28.333 -270 85zM857 314
c97.333 77.333 146 170.333 146 279c0 109.333 -48.667 202.333 -146 279c-97.333 77.333 -214.666 116 -351.999 116s-254.666 -38.667 -351.999 -116c-97.333 -76.667 -146 -169.667 -146 -279c0 -108.667 48.667 -201.667 146 -279s214.666 -116 351.999 -116
s254.666 38.667 351.999 116zM1111 384c-74 56 -111 123.667 -111 203c0 80 37 148.333 111 205c74.667 56 164.667 84 270 84c104.667 0 194.334 -28 269.001 -84c74 -56.667 111 -125 111 -205c0 -79.333 -37 -147 -111 -203c-74.667 -56.667 -164.334 -85 -269.001 -85
c-105.333 0 -195.333 28.333 -270 85zM1735 314c97.333 77.333 146 170.333 146 279c0 109.333 -48.667 202.333 -146 279c-97.333 77.333 -214.666 116 -351.999 116s-254.666 -38.667 -351.999 -116c-97.333 -76.667 -146 -169.667 -146 -279
c0 -108.667 48.667 -201.667 146 -279s214.666 -116 351.999 -116s254.666 38.667 351.999 116z" />
    <glyph glyph-name="integral" unicode="&#x222b;" 
 />
    <glyph glyph-name="approxequal" unicode="&#x2248;" horiz-adv-x="1143" 
d="M0 714c59.333 110 153.664 164.999 282.997 164.999c101.333 0 190.333 -41.667 267 -125c60.667 -65.333 129.334 -98 206.001 -98c72.667 8 124.334 32 155.001 72l122 1c-59.333 -110 -153.666 -165 -282.999 -165c-101.333 0 -190.333 42 -267 126
c-62 64.667 -130 97 -204 97c-88.667 -1.33301 -138.667 -25.666 -150 -72.999h-129zM-0.00195312 493.999c59.333 110 153.664 164.999 282.997 164.999c101.333 0 190.333 -41.667 267 -125c60.667 -65.333 129.334 -98 206.001 -98c72.667 8 124.334 32 155.001 72l122 1
c-59.333 -110 -153.666 -165 -282.999 -165c-101.333 0 -190.333 42 -267 126c-62 64.667 -130 97 -204 97c-88.667 -1.33301 -138.667 -25.666 -150 -72.999h-129z" />
    <glyph glyph-name="lessequal" unicode="&#x2264;" horiz-adv-x="1584" 
d="M737 87c174.667 0 324 61.667 448 185c123.333 124 185 273.333 185 448s-61.667 324 -185 448c-124 123.333 -273.333 185 -448 185s-324 -61.667 -448 -185c-123.333 -124 -185 -273.333 -185 -448s61.667 -324 185 -448c124 -123.333 273.333 -185 448 -185zM1474 716
c-0.666992 -201.333 -72.667 -373.666 -216 -516.999c-144 -144 -317.667 -216 -521 -216s-377 72 -521 216s-216 317.667 -216 521s72 377 216 521s317.667 216 521 216s377 -72 521 -216c46.667 -46.667 85.667 -96.334 117 -149.001v626h99v-1002z" />
    <glyph glyph-name="greaterequal" unicode="&#x2265;" horiz-adv-x="1204" 
d="M1094 1330v105l-1094 2v-1437h1094v105h-989v303h989v105h-989v817h989z" />
    <glyph glyph-name="uniF001" unicode="&#xf001;" horiz-adv-x="1581" 
d="M1444 897c-46.667 160.667 -134.999 292.001 -264.999 394.001c-132 104 -282 156 -450 156c-201.333 0 -373.333 -71 -516 -213c-142 -142.667 -213 -314.334 -213 -515.001c0 -201.333 71 -373.333 213 -516c142.667 -142 314.667 -213 516 -213
c165.333 0 313.333 50.667 444 152c128.667 99.333 214.667 226.666 258 381.999h-117c-41.333 -124 -115 -225 -221 -303c-108 -79.333 -229.333 -119 -364 -119c-170.667 0 -316.334 60 -437.001 180c-120 120.667 -180 266.334 -180 437.001c0 64 10.667 123.333 32 178
h1300zM177.001 998.001c28.667 56 67 108.332 115 156.999c120.667 120 266.334 180 437.001 180c137.333 0 260.666 -41 369.999 -123c78 -59.333 138 -130.666 180 -213.999h-1102z" />
    <glyph glyph-name="uniF001" unicode="&#xfb01;" horiz-adv-x="1581" 
d="M1444 897c-46.667 160.667 -134.999 292.001 -264.999 394.001c-132 104 -282 156 -450 156c-201.333 0 -373.333 -71 -516 -213c-142 -142.667 -213 -314.334 -213 -515.001c0 -201.333 71 -373.333 213 -516c142.667 -142 314.667 -213 516 -213
c165.333 0 313.333 50.667 444 152c128.667 99.333 214.667 226.666 258 381.999h-117c-41.333 -124 -115 -225 -221 -303c-108 -79.333 -229.333 -119 -364 -119c-170.667 0 -316.334 60 -437.001 180c-120 120.667 -180 266.334 -180 437.001c0 64 10.667 123.333 32 178
h1300zM177.001 998.001c28.667 56 67 108.332 115 156.999c120.667 120 266.334 180 437.001 180c137.333 0 260.666 -41 369.999 -123c78 -59.333 138 -130.666 180 -213.999h-1102z" />
    <glyph glyph-name="uniF002" unicode="&#xf002;" horiz-adv-x="1615" 
d="M373 511l380 722l379 -722h-759zM1400 0h105l-700 1332l-52 100l-53 -99v-1l-700 -1332h105l213 406h869z" />
    <glyph glyph-name="uniF002" unicode="&#xfb02;" horiz-adv-x="1615" 
d="M373 511l380 722l379 -722h-759zM1400 0h105l-700 1332l-52 100l-53 -99v-1l-700 -1332h105l213 406h869z" />
    <glyph glyph-name=".null" horiz-adv-x="0" 
 />
    <glyph glyph-name="nonmarkingreturn" horiz-adv-x="508" 
 />
    </font>
</defs>
</svg>
